<svg width="111" height="96" viewBox="0 0 111 96" fill="none" xmlns="http://www.w3.org/2000/svg">
<path d="M95.9489 10.8825H16.1285C12.7837 10.8825 10.047 13.6192 10.047 16.964V38.0974C10.047 41.5943 11.2633 44.9392 13.5439 47.6759L49.121 91.159C52.7699 95.5681 59.6116 95.5681 63.2606 91.159L98.8377 47.6759C101.118 44.9392 102.335 41.5943 102.335 38.0974V16.964C102.03 13.6192 99.2938 10.8825 95.9489 10.8825Z" fill="white" stroke="#231F20" stroke-width="1.52039" stroke-miterlimit="10"/>
<path d="M48.6657 68.5052L23.7313 38.0975V24.566H88.3478L88.4999 38.8576L64.1736 68.3532H48.6657V68.5052ZM50.6422 68.6573L64.1736 68.5052L86.9795 40.6821V30.0394C86.9795 29.1272 86.3713 28.519 85.4591 28.519H29.2047C28.2925 28.519 27.6843 29.1272 27.6843 30.0394V39.4658C27.6843 40.226 27.9884 40.8342 28.4445 41.4423L50.6422 68.6573Z" fill="black"/>
<path d="M57.1794 84.4691L61.1324 79.6039C61.7406 78.8437 61.2845 77.7794 60.2202 77.7794H51.554C50.6418 77.7794 50.0336 78.8437 50.6418 79.6039L54.5948 84.4691C55.507 85.0773 56.5713 85.0773 57.1794 84.4691Z" fill="black"/>
<path d="M86.8274 24.566H25.2517C24.3395 24.566 23.7313 25.1741 23.7313 26.0864V38.0975C23.7313 38.4015 23.8833 38.8576 24.0354 39.0097L47.1453 67.2889C47.7534 68.0491 48.5136 68.3532 49.4259 68.3532H62.5012C63.4134 68.3532 64.3257 67.8971 64.7818 67.2889L87.8917 39.0097C88.0437 38.7056 88.1958 38.4015 88.1958 38.0975V26.0864C88.3478 25.3262 87.7397 24.566 86.8274 24.566Z" stroke="black" stroke-width="1.52039" stroke-miterlimit="10" stroke-linecap="round" stroke-linejoin="round"/>
<path d="M13.3923 1C9.28723 1.30408 1.07713 6.16932 0.925095 13.0111" stroke="black" stroke-width="1.52039" stroke-miterlimit="10" stroke-linecap="round" stroke-linejoin="round"/>
<path d="M108.112 10.4262C109.025 11.6425 109.633 13.467 109.633 15.1394C109.633 16.8118 109.633 20.6128 109.633 20.6128" stroke="black" stroke-width="1.52039" stroke-miterlimit="10" stroke-linecap="round" stroke-linejoin="round"/>
</svg>
