<svg width="903" height="628" viewBox="0 0 903 628" fill="none" xmlns="http://www.w3.org/2000/svg">
<g clip-path="url(#clip0)">
<g clip-path="url(#clip1)">
<path d="M287.93 168.751L280.597 160.509C280.597 160.509 278.306 150.205 279.91 130.743C281.514 111.509 291.368 87.0094 291.368 87.0094C291.368 87.0094 307.638 53.5798 335.138 32.5146C362.637 11.4494 398.386 3.20653 427.031 1.60374C455.677 0.000953674 493.488 2.29065 518.238 11.4494C542.987 20.6082 563.841 40.0706 578.278 65.0283C592.715 89.986 598.215 114.257 598.215 114.257L603.027 133.261L591.798 245.456L562.007 253.699L287.93 168.751Z" fill="#1E1F24"/>
<path d="M227.661 177.681L209.786 172.873L205.203 173.788L169.912 204.012L178.391 264.002L207.953 266.979L228.577 258.049L231.557 254.157L227.661 177.681Z" fill="#1E1F24"/>
<path d="M298.7 219.585C295.721 221.646 289.305 227.141 287.471 230.118C285.638 233.094 284.492 234.468 284.721 235.842C284.951 237.216 285.867 247.29 289.534 250.725C293.2 254.388 298.7 260.113 298.7 260.113C298.7 260.113 301.221 248.206 300.534 242.024C300.075 235.842 298.7 223.935 298.7 223.935V219.585Z" fill="#1E1F24"/>
<path d="M425.427 167.381C423.135 166.923 419.927 168.755 419.698 171.045C419.469 173.334 421.531 175.166 424.281 174.479C427.031 173.792 427.719 171.732 427.49 170.129C427.49 168.526 425.427 167.381 425.427 167.381Z" fill="#1E1F24"/>
<path d="M401.365 130.973L404.574 161.655C404.574 161.655 404.345 163.487 408.011 163.258C411.449 163.258 429.323 160.052 429.323 160.052C429.323 160.052 430.469 157.076 430.469 152.725C430.469 148.375 429.094 119.754 411.678 109.221C394.032 98.6884 371.116 97.5435 356.679 104.871C342.242 112.198 331.471 129.599 329.409 142.879C327.346 156.16 327.117 159.594 327.117 159.594C327.117 159.594 342.929 167.608 352.783 168.295C362.637 168.982 375.699 168.524 375.699 168.524L376.845 166.234C376.845 166.234 378.449 146.772 379.137 141.735C379.824 136.697 381.887 125.478 381.887 125.478C381.887 125.478 380.97 152.038 381.199 160.281C381.428 168.524 381.428 173.332 381.428 173.332C381.428 173.332 385.095 174.019 389.449 173.332C393.803 172.646 400.22 170.585 400.22 170.585C400.22 170.585 399.99 149.749 399.761 141.735C399.532 133.721 400.449 120.669 400.449 120.669L401.365 130.973Z" fill="black"/>
<path d="M601.882 130.514C601.882 130.514 600.965 138.986 593.173 145.168C585.382 151.35 575.986 157.99 575.986 157.99L587.444 158.448C587.444 158.448 592.944 151.35 602.34 150.205C611.736 149.06 649.547 149.06 649.547 149.06L681.63 148.831C681.63 148.831 679.338 138.757 662.609 136.009C645.881 133.262 619.069 130.972 619.069 130.972L601.882 130.514Z" fill="black"/>
<path d="M523.509 267.667C523.509 267.667 530.383 253.242 537.258 246.144C544.133 239.046 552.383 233.551 552.383 233.551C552.383 233.551 554.216 242.71 563.612 243.625C573.237 244.312 585.382 243.854 585.382 243.854C585.382 243.854 590.424 253.242 595.007 255.074C599.59 256.906 609.215 257.822 609.215 257.822C609.215 257.822 608.986 289.648 611.965 312.087C614.944 334.526 620.902 357.881 627.09 372.764C633.277 387.876 635.11 394.516 635.11 394.516C635.11 394.516 623.652 407.11 619.069 427.946C614.715 448.782 611.965 477.174 611.277 493.889C610.59 510.604 614.027 548.155 616.777 564.412C619.527 580.669 623.194 620.738 624.11 636.995C625.256 653.252 622.735 692.177 616.777 714.845C610.59 737.513 606.694 763.386 606.236 775.064C605.778 786.741 608.069 803.456 608.069 803.456C608.069 803.456 585.841 788.344 576.216 769.11C566.591 749.877 559.029 725.606 556.508 713.013C553.987 700.42 552.383 680.27 552.383 680.27C552.383 680.27 546.654 692.635 543.446 696.298C540.008 700.191 535.425 704.999 535.425 704.999C535.425 704.999 537.717 678.21 534.508 658.289C531.3 638.369 518.696 597.612 518.696 597.612C518.696 597.612 507.009 553.65 506.322 536.248C505.634 518.847 509.071 484.73 509.071 484.73L509.988 469.847C509.988 469.847 503.113 484.73 500.363 488.623C497.613 492.515 492.343 495.95 492.343 495.95C492.343 495.95 496.697 463.665 494.634 452.446C492.801 440.997 489.593 413.521 486.384 401.843C483.176 390.166 481.343 378.488 479.51 377.115C477.906 375.741 474.01 375.512 474.01 375.512C474.01 375.512 480.426 357.194 482.489 350.783C484.551 344.372 491.655 330.405 491.655 330.405C491.655 330.405 491.197 360.4 491.655 364.979C492.114 369.559 494.634 374.596 499.676 373.909C504.717 373.222 507.238 362.919 507.238 357.423C507.238 351.928 508.842 321.704 508.842 321.704L510.676 298.578C510.676 298.578 512.738 313.461 514.8 318.498C516.863 323.536 521.675 327.657 525.342 326.283C529.009 324.91 528.092 315.751 528.092 315.751C528.092 315.751 524.884 290.106 524.425 283.237C523.967 276.368 523.509 267.667 523.509 267.667Z" fill="#1E1F24"/>
<path d="M459.342 380.09C459.342 380.09 460.717 383.982 462.092 385.127C463.467 386.272 464.613 386.73 464.613 386.73C464.613 386.73 442.384 408.711 419.697 418.328C397.01 427.945 385.552 429.547 384.177 430.005C382.802 430.463 379.823 432.066 378.677 440.767C377.532 449.468 376.844 449.01 376.844 465.724C376.844 482.439 374.323 545.635 373.178 552.733C372.032 559.831 366.303 631.956 363.553 650.503C360.803 669.049 355.303 699.96 355.303 699.96L351.636 692.633C351.636 692.633 347.741 739.343 344.991 754.226C342.241 769.109 331.012 801.623 331.012 801.623C331.012 801.623 325.283 780.1 324.137 775.978C322.991 771.857 312.221 712.783 310.387 702.708C308.554 692.633 306.033 671.568 306.033 671.568C306.033 671.568 300.533 684.848 299.617 687.367C298.7 689.886 296.638 692.862 296.638 692.862C296.638 692.862 291.138 657.143 290.45 651.877C289.763 646.61 289.305 598.069 289.534 595.092C289.763 592.116 286.325 529.378 286.325 529.378L284.95 510.145C284.95 510.145 283.117 451.07 283.117 445.575C283.346 440.08 284.721 412.146 284.034 397.263C283.346 382.38 281.742 329.946 281.742 329.946C281.742 329.946 291.138 349.637 292.971 355.132C294.804 360.627 297.783 368.412 303.054 364.978C308.325 361.543 303.513 345.973 303.513 345.973L299.846 332.922C299.846 332.922 315.429 355.361 321.387 361.314C327.345 367.268 334.22 375.51 337.199 376.197C340.178 376.884 340.407 376.197 340.407 376.197C340.407 376.197 357.824 405.734 389.448 405.277C421.072 404.819 437.572 392.912 437.572 392.912L459.342 380.09Z" fill="#1E1F24"/>
<path d="M287.014 512.209L282.431 524.344L287.472 523.886L287.014 512.209Z" fill="#1E1F24"/>
<path d="M282.201 162.115C282.201 162.115 296.639 168.068 307.18 170.357C317.721 172.647 328.721 176.082 328.721 176.082C328.721 176.082 312.909 174.25 309.93 173.792C306.951 173.334 303.743 172.876 302.826 174.479C301.909 176.082 300.764 182.722 300.764 182.722C300.764 182.722 289.076 181.348 285.639 181.348C282.201 181.348 279.681 181.119 279.681 181.119L282.201 162.115Z" fill="#1E1F24"/>
<path d="M377.991 138.072L376.616 155.016C376.616 155.016 389.22 155.703 394.491 155.932C399.762 156.161 405.491 155.474 405.491 155.474L403.428 136.927L377.991 138.072Z" fill="black"/>
<path d="M436.655 184.55L445.134 184.779L438.718 188.671L436.655 184.55Z" fill="#1E1F24"/>
<path d="M767.336 252.096C767.336 252.096 767.336 254.844 768.71 255.76C769.856 256.905 770.773 257.592 770.773 257.592L762.981 261.942L767.336 252.096Z" fill="black"/>
<path d="M750.487 267.8C750.487 267.8 745.904 268.716 748.195 268.945C750.487 269.403 750.029 272.15 748.654 273.524C747.279 274.898 748.654 275.356 748.654 275.356L754.383 269.174L750.487 267.8Z" fill="#1E1F24"/>
<path d="M752.898 268.812C752.898 268.812 750.836 267.209 751.981 267.209C753.127 267.209 754.502 266.98 755.648 266.064C756.794 265.148 756.106 266.751 756.106 266.751L752.898 268.812Z" fill="black"/>
<path d="M110.33 296.978L114.684 298.351L110.33 300.641V296.978Z" fill="black"/>
<path d="M474.01 284.614L480.197 283.24C480.197 283.24 480.655 284.385 479.051 284.614C477.676 284.843 476.072 286.217 476.76 288.277C477.447 290.338 476.301 290.796 476.301 290.796L474.01 284.614Z" fill="black"/>
<path d="M223.764 208.595L240.722 180.661C240.722 180.661 281.742 181.577 293.888 182.722C306.262 183.867 301.221 177.456 301.221 177.456C301.221 177.456 303.512 173.105 305.346 173.334C307.179 173.563 367.219 181.806 367.219 181.806L436.426 185.012L438.259 188.446C438.259 188.446 463.009 178.142 466.217 177.914C469.425 177.685 503.799 169.9 523.966 167.839C544.361 166.007 555.132 166.694 555.132 166.694C548.486 187.53 548.028 209.969 551.694 233.553L548.944 235.385C548.944 235.385 538.403 242.941 532.674 251.184C526.945 259.198 522.82 267.67 522.82 267.67C522.82 267.67 525.111 294.23 525.799 299.038C526.716 303.847 528.091 318.73 528.091 318.73C528.091 318.73 529.007 324.912 525.341 325.828C521.903 326.744 517.549 323.309 517.549 323.309L513.424 312.777L510.445 302.473L508.841 321.477L506.779 360.402C506.779 360.402 504.258 374.14 499.675 374.598C495.091 375.056 491.196 368.187 490.737 364.753C490.279 361.318 490.966 331.094 490.966 331.094C490.966 331.094 482.487 345.519 480.425 353.304C478.363 361.089 473.092 376.888 472.404 378.033C471.717 379.407 470.027 385.923 465.903 385.923C461.778 385.923 461.634 383.528 460.488 381.925C459.342 380.323 458.884 380.094 458.884 380.094C458.884 380.094 436.655 395.893 415.801 400.701C394.948 405.509 378.448 407.57 364.011 397.953C349.574 388.566 341.095 375.743 341.095 375.743C341.095 375.743 337.657 377.117 329.408 369.332C321.387 361.547 300.304 333.613 300.304 333.613L305.117 353.991C305.117 353.991 308.096 364.524 301.908 364.753C295.721 364.982 294.575 358.113 294.575 358.113L278.534 321.935C278.534 321.935 278.992 334.3 278.076 336.589C277.159 338.879 276.013 343.459 272.346 343.459C268.68 343.459 265.472 336.589 265.242 332.01C265.013 327.431 261.118 296.978 261.118 296.978L256.764 269.73L299.158 260.801L300.762 242.941L298.471 219.357C298.471 219.357 290.221 225.539 287.7 229.203C285.18 232.866 284.721 235.385 284.721 235.385L220.785 234.24L223.764 208.595Z" fill="white"/>
<path d="M228.578 228.059L233.161 253.245C233.161 253.245 245.078 255.535 248.515 260.114C251.953 264.694 261.119 276.6 261.119 276.6L301.91 263.778L298.472 260.343C298.472 260.343 287.473 250.727 286.098 246.376C284.723 242.026 284.035 231.951 284.035 231.951L228.578 228.059Z" fill="white"/>
<path d="M898.416 266.065C892 228.972 880.313 203.785 866.792 189.589C853.271 175.393 835.626 160.739 808.356 156.846C781.086 152.954 773.753 156.16 747.628 152.954C721.504 149.519 685.296 149.519 679.567 149.519C673.838 149.519 620.902 148.833 620.902 148.833C620.902 148.833 605.548 149.519 601.194 150.664C596.84 151.809 590.653 154.099 585.84 160.968C581.257 167.608 573.695 178.599 575.528 202.411C577.59 226.224 584.465 244.313 586.986 247.976C589.736 251.64 594.09 256.448 601.652 257.593C609.215 258.738 754.045 268.584 754.045 268.584C754.045 268.584 724.712 296.289 716.004 307.279C707.296 318.27 692.859 336.588 684.38 343.915C675.671 351.242 648.172 381.008 643.818 384.671C639.464 388.335 628.693 401.157 624.798 409.171C620.902 417.414 615.86 441.914 614.256 457.026C612.423 472.137 608.527 520.221 614.715 557.314C620.902 594.636 624.339 628.066 624.339 647.528C624.339 666.99 619.756 701.794 617.464 710.953C615.173 720.111 607.84 752.625 607.152 759.952C606.236 767.279 606.923 793.153 606.923 793.153L607.84 802.083V803.227C605.09 801.396 601.652 798.877 596.84 795.213C581.257 782.849 578.736 774.148 566.132 748.275C553.758 722.401 551.695 679.355 551.695 679.355C551.695 679.355 549.404 682.789 544.82 692.864C540.237 703.168 534.508 705.686 534.508 705.686L535.196 700.42C535.196 700.42 536.571 688.056 534.966 667.906C533.362 647.757 523.967 618.907 513.654 581.356C503.342 543.576 505.634 521.595 507.009 506.254C508.384 490.913 509.53 472.824 509.53 472.824C509.53 472.824 504.03 482.441 500.592 487.478C497.155 492.516 490.967 496.637 490.967 496.637C490.967 496.637 492.342 493.203 492.801 488.852C493.259 484.502 494.863 457.712 493.717 444.203C492.572 430.694 482.259 386.961 481.113 381.237C479.968 375.512 471.947 376.428 471.947 376.428L463.926 386.732L449.26 401.386C449.26 401.386 429.552 414.895 420.386 418.788C411.219 422.68 385.324 429.778 383.262 430.236C381.199 430.694 377.762 438.25 377.303 443.745C376.845 449.241 375.928 479.922 375.928 479.922L371.116 573.342L361.033 663.098L354.616 700.191L351.179 694.238C351.179 694.238 348.887 717.364 345.45 748.275C342.471 773.919 333.304 794.069 330.325 800.251L322.076 771.63L312.451 721.027L305.347 672.257L296.18 694.238L289.305 642.949L289.993 606.772L285.639 524.114L282.66 459.544L283.576 413.521L259.973 399.783L235.452 384.442L205.891 359.027L129.122 301.326L126.143 297.205L180.225 281.864L203.141 272.018L207.953 266.523C188.704 256.448 177.933 187.528 206.578 172.874L199.703 171.272C199.703 171.272 184.35 170.356 147.913 176.538C111.476 182.72 94.06 187.07 72.9771 196C51.8943 204.93 20.9575 222.561 10.6452 244.542C0.332958 266.752 -0.125365 291.252 2.16625 307.279C4.45786 323.307 14.3118 364.522 24.1657 389.251C34.0197 413.979 61.2899 454.736 72.9771 472.137C84.8935 489.539 101.164 512.436 136.455 547.926C171.516 583.417 183.204 590.286 183.204 590.286L209.328 614.556C209.328 614.556 218.724 624.631 227.432 649.589C236.14 674.547 238.202 696.986 238.202 696.986C238.202 696.986 242.327 743.924 243.473 762.929C244.39 781.933 253.785 819.942 253.785 819.942L262.035 845.816C377.991 904.661 545.966 892.068 735.712 840.549C735.712 840.549 741.899 766.821 740.982 747.359C740.066 728.125 738.232 663.556 743.732 645.925C749.003 628.295 775.815 572.884 775.815 572.884C775.815 572.884 796.898 538.539 809.502 522.053C822.106 505.567 837.23 482.899 853.73 449.47C870.229 416.269 889.479 381.924 895.437 347.12C901.395 312.775 904.833 303.387 898.416 266.065Z" fill="white"/>
<path d="M237.973 253.701L242.786 186.384L242.327 181.117L224.223 180.888C210.015 200.58 219.411 240.878 226.973 253.93L237.973 253.701Z" fill="white"/>
<path d="M416.719 113.801C409.156 104.643 397.24 99.8343 377.532 100.063C358.053 100.292 344.304 111.512 337.658 121.586C331.012 131.661 327.117 149.979 327.117 149.979L326.658 159.137C326.658 159.137 337.429 165.777 350.72 167.838C363.782 170.128 375.928 168.296 375.928 168.296L377.074 165.777L380.053 140.362L381.657 138.759L382.344 172.876L383.261 174.02L399.99 170.815L400.219 167.38L400.907 129.371L405.261 162.343L407.552 163.259L428.864 160.511L430.927 157.077C430.927 157.077 430.927 141.507 427.718 132.119C424.052 123.189 416.719 113.801 416.719 113.801Z" fill="white"/>
<path d="M601.882 129.603C601.882 129.603 601.423 140.136 589.507 148.379C577.59 156.621 575.299 158.224 575.299 158.224L592.486 158.453L679.109 153.874L681.171 147.921C681.171 147.921 678.421 139.22 663.526 136.243C648.63 133.267 617.694 130.977 617.694 130.977L601.882 129.603Z" fill="white"/>
<path d="M88.1006 302.242C95.8921 302.7 116.287 299.952 131.641 295.602C146.995 291.251 178.619 282.779 190.536 278.2C202.452 273.62 206.806 269.499 208.181 265.835" stroke="#1E1F24" stroke-width="2.29161" stroke-miterlimit="10" stroke-linecap="round" stroke-linejoin="round"/>
<path d="M126.601 297.206C126.601 297.206 127.517 300.411 130.955 302.701C134.392 304.991 166.704 328.346 190.537 346.434C214.369 364.523 231.098 382.154 244.848 390.625C258.598 399.097 278.764 408.485 283.805 413.064" stroke="#1E1F24" stroke-width="2.29161" stroke-miterlimit="10" stroke-linecap="round" stroke-linejoin="round"/>
<path d="M281.972 329.717C281.972 329.717 285.18 405.735 284.034 425.198C282.888 444.66 284.034 500.071 287.242 542.43C290.451 584.789 289.992 614.555 289.763 631.728C289.534 648.901 296.409 694.466 296.409 694.466C296.409 694.466 300.763 686.223 302.596 680.728C304.429 675.232 306.263 671.34 306.263 671.34C306.263 671.34 311.304 713.699 317.033 743.007C322.762 772.544 330.554 802.31 330.554 802.31C330.554 802.31 343.616 772.773 347.283 739.115C350.72 705.456 351.637 691.718 351.637 691.718C353.012 694.924 354.157 698.129 355.303 701.335C355.303 701.335 361.262 672.714 367.678 614.555C374.095 556.397 375.928 502.818 376.386 480.15C376.844 457.482 376.157 452.445 377.074 446.95C377.761 443.744 378.907 438.249 379.824 434.585C380.511 431.838 382.574 429.777 385.323 429.319C394.032 427.487 413.739 422.45 432.302 411.459C456.822 396.805 464.364 386.693 464.364 386.693" stroke="#1E1F24" stroke-width="2.29161" stroke-miterlimit="10" stroke-linecap="round" stroke-linejoin="round"/>
<path d="M341.782 376.429C347.053 384.672 362.407 405.05 392.427 405.05C422.447 405.05 454.071 383.985 459.113 379.864" stroke="white" stroke-width="2.29161" stroke-miterlimit="10" stroke-linecap="round" stroke-linejoin="round"/>
<path d="M255.847 563.956C255.847 563.956 243.93 607.46 245.993 651.88" stroke="#1E1F24" stroke-width="2.29161" stroke-miterlimit="10" stroke-linecap="round" stroke-linejoin="round"/>
<path d="M273.95 593.032C273.95 593.032 274.638 543.804 285.408 514.267" stroke="#1E1F24" stroke-width="2.29161" stroke-miterlimit="10" stroke-linecap="round" stroke-linejoin="round"/>
<path d="M473.322 284.841C475.384 285.986 478.593 292.626 475.843 303.159C473.093 313.691 464.156 342.084 461.406 356.051C458.656 369.789 457.968 382.382 462.322 385.817C466.905 389.022 471.489 382.153 472.176 379.635C472.864 377.116 481.343 354.219 483.863 347.35C486.384 340.481 491.884 331.322 496.926 319.645C501.967 307.967 514.113 285.986 519.613 275.225C525.112 264.463 530.612 247.977 551.695 234.239" stroke="#1E1F24" stroke-width="2.29161" stroke-miterlimit="10" stroke-linecap="round" stroke-linejoin="round"/>
<path d="M601.881 130.287C610.818 130.516 638.776 131.203 659.859 135.324C680.941 139.446 681.4 147.46 681.4 149.063" stroke="white" stroke-width="2.29161" stroke-miterlimit="10" stroke-linecap="round" stroke-linejoin="round"/>
<path d="M472.175 368.642C467.821 368.642 467.363 373.221 465.759 379.404" stroke="white" stroke-width="2.29161" stroke-miterlimit="10" stroke-linecap="round" stroke-linejoin="round"/>
<path d="M376.844 454.277C379.823 457.025 397.468 469.16 430.009 465.497C462.55 461.833 485.466 451.988 493.945 445.348" stroke="#1E1F24" stroke-width="2.29161" stroke-miterlimit="10" stroke-linecap="round" stroke-linejoin="round"/>
<path d="M388.073 478.775C414.427 489.537 438.947 493.2 483.404 477.859" stroke="#1E1F24" stroke-width="2.29161" stroke-miterlimit="10" stroke-linecap="round" stroke-linejoin="round"/>
<path d="M473.092 376.885C474.008 375.512 479.967 374.825 481.342 380.091C482.717 385.586 493.258 427.946 494.633 452.445C496.008 476.945 491.196 496.866 491.196 496.866C491.196 496.866 499.904 491.141 504.258 482.44C508.612 473.74 510.216 469.389 510.216 469.389C510.216 469.389 506.32 512.435 506.091 531.898C506.091 551.36 515.945 591.43 523.278 612.724C530.611 634.018 535.424 663.097 536.111 676.607C536.569 690.116 534.965 705.915 534.965 705.915C534.965 705.915 541.84 701.106 545.965 692.635C550.09 684.163 552.382 679.354 552.382 679.354C552.382 679.354 553.527 709.349 560.861 732.704C568.194 756.059 579.652 780.33 591.339 790.862C603.026 801.395 608.297 804.372 608.297 804.372C608.297 804.372 603.943 775.979 608.297 753.998C612.651 732.017 620.443 705.686 623.422 672.027C626.172 638.369 620.672 596.696 617.234 570.823C613.797 544.949 608.985 512.893 612.651 476.716C616.318 440.539 618.838 418.1 630.526 401.614C641.984 385.128 681.399 347.348 690.795 339.334C700.191 331.321 717.836 305.218 730.211 292.625C742.586 280.26 767.564 253.471 795.293 246.373" stroke="#1E1F24" stroke-width="2.29161" stroke-miterlimit="10" stroke-linecap="round" stroke-linejoin="round"/>
<path d="M775.356 237.442C769.168 246.601 763.697 258.228 761.405 263.952" stroke="#1E1F24" stroke-width="2.29161" stroke-miterlimit="10" stroke-linecap="round" stroke-linejoin="round"/>
<path d="M677.505 386.504C668.338 403.447 661.922 429.779 672.005 468.704" stroke="#1E1F24" stroke-width="2.29161" stroke-miterlimit="10" stroke-linecap="round" stroke-linejoin="round"/>
<path d="M281.971 162.115C281.971 162.115 280.367 174.021 279.45 181.348" stroke="white" stroke-width="2.29161" stroke-miterlimit="10" stroke-linecap="round" stroke-linejoin="round"/>
<path d="M655.963 397.952C650.005 415.583 641.984 437.793 652.067 494.348C662.15 551.133 683.921 590.744 683.921 590.744" stroke="#1E1F24" stroke-width="2.29161" stroke-miterlimit="10" stroke-linecap="round" stroke-linejoin="round"/>
<path d="M660.776 561.894C668.339 594.407 696.296 642.72 727.921 648.673" stroke="#1E1F24" stroke-width="2.29161" stroke-miterlimit="10" stroke-linecap="round" stroke-linejoin="round"/>
<path d="M866.333 281.178C866.333 281.178 870.916 291.71 869.541 315.065" stroke="#1E1F24" stroke-width="2.29161" stroke-miterlimit="10" stroke-linecap="round" stroke-linejoin="round"/>
<path d="M211.333 616.667C201.479 608.882 191.453 595.781 175.641 585.249C160.058 574.716 101.851 513.581 85.5802 490.455C69.3097 467.329 34.9355 417.414 26.4565 395.891C17.9776 374.368 1.7071 318.041 1.24878 298.35C0.790454 278.658 -0.813675 253.93 23.0191 227.369C46.8519 200.809 102.309 183.407 122.933 179.744C143.558 176.08 180.453 171.959 192.369 171.043C204.515 170.127 207.265 173.561 207.265 173.561" stroke="#1E1F24" stroke-width="2.29161" stroke-miterlimit="10" stroke-linecap="round" stroke-linejoin="round"/>
<path d="M224.451 180.89C224.451 180.89 267.533 180.432 289.533 182.035C311.532 183.638 334.907 189.362 338.574 190.049C342.24 190.736 349.115 196.689 352.782 200.582C356.448 204.474 364.01 215.236 366.76 218.67C369.51 222.105 370.427 226.684 368.823 228.287C367.219 229.89 359.886 232.409 354.156 231.035C348.427 229.661 335.824 221.189 330.782 219.128C325.74 217.068 322.074 215.465 314.97 215.465C307.866 215.465 299.387 217.754 292.97 223.937C286.554 230.119 284.95 235.385 284.95 235.385" stroke="#1E1F24" stroke-width="2.29161" stroke-miterlimit="10" stroke-linecap="round" stroke-linejoin="round"/>
<path d="M284.721 226.225C284.263 229.66 284.492 242.024 287.471 247.748C290.45 253.472 297.325 258.052 298.7 260.113" stroke="#1E1F24" stroke-width="2.29161" stroke-miterlimit="10" stroke-linecap="round" stroke-linejoin="round"/>
<path d="M298.929 260.339C300.304 260.797 314.283 261.941 319.782 262.857C325.282 263.773 327.803 264.002 329.866 263.315" stroke="#1E1F24" stroke-width="2.29161" stroke-miterlimit="10" stroke-linecap="round" stroke-linejoin="round"/>
<path d="M330.324 263.317C330.324 263.317 335.366 259.425 338.574 255.99C341.782 252.556 342.241 248.892 344.532 243.626C346.824 238.36 350.49 232.636 353.928 231.262" stroke="#1E1F24" stroke-width="2.29161" stroke-miterlimit="10" stroke-linecap="round" stroke-linejoin="round"/>
<path d="M362.178 231.262C363.094 233.093 362.636 250.953 360.803 256.219C358.969 261.486 354.157 271.102 349.574 276.827C344.99 282.551 338.116 288.962 333.991 291.252C329.866 293.541 324.366 293.77 317.72 293.77C311.075 293.77 289.075 291.71 282.659 291.023C276.242 290.336 269.138 284.383 264.326 279.345C259.513 274.308 248.972 258.738 244.159 256.219C239.347 253.701 232.701 253.014 228.118 253.701" stroke="#1E1F24" stroke-width="2.29161" stroke-miterlimit="10" stroke-linecap="round" stroke-linejoin="round"/>
<path d="M267.362 282.421C267.362 282.421 276.472 296.287 281.055 302.469C285.638 308.651 299.617 332.006 303.054 336.127C306.492 340.249 318.637 358.338 323.221 362.23C327.804 366.122 334.22 374.136 337.887 375.739C341.554 377.342 346.595 372.992 346.824 367.954C347.053 362.917 344.991 356.964 340.866 353.3C336.741 349.637 331.47 343.683 328.95 338.188C326.429 332.693 317.721 316.207 313.825 310.941C309.929 305.675 307.179 297.432 306.034 293.31" stroke="#1E1F24" stroke-width="2.29161" stroke-miterlimit="10" stroke-linecap="round" stroke-linejoin="round"/>
<path d="M261.347 275.91C262.722 279.802 266.847 298.578 272.346 309.11C277.846 319.643 288.617 343.685 292.054 352.157C295.492 360.629 297.325 366.353 302.137 364.979C306.95 363.605 306.262 354.675 304.887 349.409C303.512 344.143 300.304 332.465 300.304 332.465" stroke="#1E1F24" stroke-width="2.29161" stroke-miterlimit="10" stroke-linecap="round" stroke-linejoin="round"/>
<path d="M328.72 362.23C332.845 359.711 338.344 362.001 342.699 368.183" stroke="#1E1F24" stroke-width="2.29161" stroke-miterlimit="10" stroke-linecap="round" stroke-linejoin="round"/>
<path d="M293.888 348.723C293.888 348.723 296.408 347.807 300.075 356.05" stroke="#1E1F24" stroke-width="2.29161" stroke-miterlimit="10" stroke-linecap="round" stroke-linejoin="round"/>
<path d="M256.076 269.729C256.076 269.729 259.743 287.818 261.118 299.267C262.722 310.486 265.013 331.093 265.472 335.902C265.93 340.71 269.138 343.687 272.117 343.687C275.097 343.687 278.076 338.878 278.305 334.299C278.534 329.948 278.076 321.706 278.076 321.706" stroke="#1E1F24" stroke-width="2.29161" stroke-miterlimit="10" stroke-linecap="round" stroke-linejoin="round"/>
<path d="M267.534 325.366C267.534 325.366 270.284 327.427 270.513 334.754" stroke="#1E1F24" stroke-width="2.29161" stroke-miterlimit="10" stroke-linecap="round" stroke-linejoin="round"/>
<path d="M352.324 206.763C351.866 208.365 350.72 213.632 362.407 222.104" stroke="#1E1F24" stroke-width="2.29161" stroke-miterlimit="10" stroke-linecap="round" stroke-linejoin="round"/>
<path d="M356.219 237.674C355.303 242.711 353.24 254.388 356.678 255.533" stroke="#1E1F24" stroke-width="2.29161" stroke-miterlimit="10" stroke-linecap="round" stroke-linejoin="round"/>
<path d="M364.927 216.15C367.219 218.669 372.031 220.501 371.573 236.987C371.115 253.472 367.219 270.416 365.156 275.682C363.094 280.949 360.573 287.589 366.761 292.168C372.948 296.519 391.281 296.29 401.593 291.71" stroke="#1E1F24" stroke-width="2.29161" stroke-miterlimit="10" stroke-linecap="round" stroke-linejoin="round"/>
<path d="M359.886 340.248C368.594 337.958 380.739 335.897 389.448 335.897C398.156 335.897 412.822 337.729 415.572 338.645" stroke="#1E1F24" stroke-width="2.29161" stroke-miterlimit="10" stroke-linecap="round" stroke-linejoin="round"/>
<path d="M298.93 219.585C298.471 226.454 301.221 240.421 300.534 247.29C299.846 254.159 299.159 259.654 299.159 259.654" stroke="#1E1F24" stroke-width="2.29161" stroke-miterlimit="10" stroke-linecap="round" stroke-linejoin="round"/>
<path d="M211.161 616.619C211.849 617.306 212.307 618.451 212.765 619.138C218.036 628.526 233.39 655.773 237.744 695.156C242.327 737.515 242.098 764.305 247.598 792.926C253.098 821.547 261.806 846.047 261.806 846.047" stroke="#1E1F24" stroke-width="2.29161" stroke-miterlimit="10" stroke-linecap="round" stroke-linejoin="round"/>
<path d="M480.14 230.092C480.909 233.555 481.8 237.9 477.446 244.769C473.092 251.638 460.947 260.11 455.905 262.628C450.863 265.147 440.78 265.605 437.114 264.46C433.447 263.315 426.572 258.965 423.593 256.904C420.614 254.843 417.864 245.914 414.198 242.25C410.531 238.587 408.239 236.068 404.344 236.755C400.448 237.671 397.698 243.395 398.615 251.18C399.531 258.965 405.031 269.955 410.989 275.222C416.948 280.488 426.114 288.731 436.885 291.478C447.655 294.226 465.988 287.357 468.967 286.212C475.842 283.007 485.696 282.32 493.029 283.236" stroke="#1E1F24" stroke-width="2.29161" stroke-miterlimit="10" stroke-linecap="round" stroke-linejoin="round"/>
<path d="M462.551 211.343C467.134 211.343 478.6 220.858 480.524 232.016" stroke="#1E1F24" stroke-width="2.29161" stroke-miterlimit="10" stroke-linecap="round" stroke-linejoin="round"/>
<path d="M405.948 227.369C409.156 224.621 416.031 217.065 414.885 209.28" stroke="#1E1F24" stroke-width="2.29161" stroke-miterlimit="10" stroke-linecap="round" stroke-linejoin="round"/>
<path d="M402.739 249.122C402.739 249.122 405.718 257.823 406.864 263.318" stroke="#1E1F24" stroke-width="2.29161" stroke-miterlimit="10" stroke-linecap="round" stroke-linejoin="round"/>
<path d="M86.2676 274.538C87.4134 280.491 99.3298 300.182 122.704 297.893" stroke="#1E1F24" stroke-width="2.29161" stroke-miterlimit="10" stroke-linecap="round" stroke-linejoin="round"/>
<path d="M433.906 184.55C436.427 184.55 441.01 187.526 435.969 190.274" stroke="#1E1F24" stroke-width="2.29161" stroke-miterlimit="10" stroke-linecap="round" stroke-linejoin="round"/>
<path d="M300.533 182.718C301.221 180.199 302.137 176.993 302.367 175.62C302.596 174.475 303.283 172.872 306.262 173.101C309.241 173.559 347.97 180.657 370.427 181.344" stroke="#1E1F24" stroke-width="2.29161" stroke-miterlimit="10" stroke-linecap="round" stroke-linejoin="round"/>
<path d="M448.801 184.094C448.801 184.094 442.385 185.239 396.781 183.636C351.178 182.033 300.763 168.982 291.138 166.005C281.742 163.029 280.597 160.968 280.367 158.907C279.909 156.618 278.305 135.094 285.409 103.726C292.513 72.3568 330.554 32.0581 353.012 21.0676C375.469 9.84809 412.594 -2.74523 473.551 2.75004C534.507 8.2453 554.903 32.0581 573.923 58.8476C592.944 85.637 600.048 123.188 601.193 128.225C602.339 133.263 601.193 136.01 596.61 141.964C593.173 146.314 583.777 153.183 577.361 156.847L574.023 158.525" stroke="white" stroke-width="2.29161" stroke-miterlimit="10" stroke-linecap="round" stroke-linejoin="round"/>
<path d="M227.432 178.829C223.536 178.6 213.911 193.254 216.89 220.731C219.869 248.207 225.598 253.702 231.098 255.305" stroke="#1E1F24" stroke-width="2.29161" stroke-miterlimit="10" stroke-linecap="round" stroke-linejoin="round"/>
<path d="M307.638 459.313C306.034 489.08 306.951 551.588 309.013 570.135" stroke="white" stroke-width="2.29161" stroke-miterlimit="10" stroke-linecap="round" stroke-linejoin="round"/>
<path d="M232.472 253.473C232.472 253.473 231.556 255.763 228.118 257.824C224.681 259.885 216.431 263.09 212.077 264.922C207.494 266.525 204.973 266.067 201.765 261.716C198.557 257.366 190.765 237.217 189.161 216.151C188.703 208.824 191.453 187.988 198.786 180.432C206.119 172.876 208.41 173.792 210.244 173.563C212.077 173.563 221.702 175.853 224.452 176.54C228.118 177.684 228.577 178.6 229.035 180.661L230.41 189.133L234.306 239.506L232.472 253.473Z" stroke="white" stroke-width="2.29161" stroke-miterlimit="10" stroke-linecap="round" stroke-linejoin="round"/>
<path d="M575.985 377.346C576.215 392.916 584.006 524.802 581.714 551.591" stroke="white" stroke-width="2.29161" stroke-miterlimit="10" stroke-linecap="round" stroke-linejoin="round"/>
<path d="M589.964 304.76C593.172 328.344 603.255 346.89 604.172 404.819" stroke="white" stroke-width="2.29161" stroke-miterlimit="10" stroke-linecap="round" stroke-linejoin="round"/>
<path d="M491.654 330.635C490.967 337.504 491.425 356.051 491.425 363.378C491.196 370.705 495.092 374.597 499.675 374.139C504.258 373.682 507.695 367.27 507.695 350.556C507.695 333.841 510.462 301.657 510.921 292.04" stroke="#1E1F24" stroke-width="2.29161" stroke-miterlimit="10" stroke-linecap="round" stroke-linejoin="round"/>
<path d="M507.238 353.075C505.405 351.701 497.155 352.388 495.78 366.126" stroke="#1E1F24" stroke-width="2.29161" stroke-miterlimit="10" stroke-linecap="round" stroke-linejoin="round"/>
<path d="M510.536 297.812C510.536 297.812 512.738 315.294 516.633 321.476C520.529 327.429 524.654 326.742 526.716 325.598C528.779 324.453 528.55 318.042 526.946 307.28C525.341 296.518 523.16 277.489 523.618 267.415" stroke="#1E1F24" stroke-width="2.29161" stroke-miterlimit="10" stroke-linecap="round" stroke-linejoin="round"/>
<path d="M382.114 125.709C379.364 139.218 377.76 152.956 376.844 166.694C376.844 167.839 375.698 168.984 374.552 168.984C356.448 170.129 340.636 167.381 327.803 160.283C327.116 159.825 326.657 159.138 326.657 158.222C327.116 149.292 332.386 97.3164 382.573 99.6061C431.384 101.896 431.155 147.919 430.697 157.993C430.697 159.138 429.78 160.054 428.634 160.283C421.072 161.886 413.739 162.802 406.635 163.031C405.489 163.031 404.572 162.344 404.572 161.199C403.426 149.979 402.051 136.012 400.676 120.671C399.76 138.073 399.531 154.33 400.218 169.213C400.218 170.129 399.76 171.045 398.843 171.274C393.572 172.647 388.302 173.563 383.031 173.792C382.343 173.792 381.656 173.105 381.656 172.418C381.198 156.62 381.427 141.05 382.114 125.709Z" stroke="white" stroke-width="2.29161" stroke-miterlimit="10" stroke-linecap="round" stroke-linejoin="round"/>
<path d="M397.927 155.93C400.677 155.93 402.51 155.93 405.718 155.93" stroke="white" stroke-width="2.29161" stroke-miterlimit="10" stroke-linecap="round" stroke-linejoin="round"/>
<path d="M453.155 182.948C453.155 182.948 453.613 178.14 453.613 165.546C453.613 152.953 452.697 153.869 449.259 153.869C442.843 154.327 436.885 154.556 430.926 155.014L427.947 155.243" stroke="white" stroke-width="2.29161" stroke-miterlimit="10" stroke-linecap="round" stroke-linejoin="round"/>
<path d="M376.157 155.473C378.449 155.473 380.511 155.702 383.032 155.702" stroke="white" stroke-width="2.29161" stroke-miterlimit="10" stroke-linecap="round" stroke-linejoin="round"/>
<path d="M357.594 115.403C357.594 115.403 346.365 122.043 343.157 149.748" stroke="#1E1F24" stroke-width="2.29161" stroke-miterlimit="10" stroke-linecap="round" stroke-linejoin="round"/>
<path d="M368.366 129.597C368.366 129.597 363.325 136.924 362.866 151.578" stroke="#1E1F24" stroke-width="2.29161" stroke-miterlimit="10" stroke-linecap="round" stroke-linejoin="round"/>
<path d="M555.361 166.464C546.653 166.006 510.216 168.296 485.237 173.562C460.259 178.829 452.238 182.034 439.176 188.674C426.114 195.086 414.197 203.099 411.218 205.847C408.239 208.595 401.364 219.356 399.531 224.394C397.698 229.431 399.073 234.468 402.968 236.071C406.635 237.903 418.551 230.347 422.218 227.141C425.885 224.165 434.822 218.211 439.863 216.609C444.905 214.777 465.519 208.93 475.138 211.239" stroke="#1E1F24" stroke-width="2.29161" stroke-miterlimit="10" stroke-linecap="round" stroke-linejoin="round"/>
<path d="M585.61 244.084C580.11 244.542 565.444 243.855 561.777 243.626C558.34 243.397 554.673 242.71 551.465 230.575C548.257 218.44 548.715 181.804 553.757 169.898C558.111 160.052 561.09 159.594 564.986 159.136C568.881 158.679 580.568 158.221 586.985 158.45H600.506L599.818 243.855L585.61 244.084Z" stroke="white" stroke-width="2.29161" stroke-miterlimit="10" stroke-linecap="round" stroke-linejoin="round"/>
<path d="M754.501 268.582C754.501 268.582 726.315 266.751 685.524 264.69C644.504 262.4 608.984 258.05 600.047 257.134C591.109 256.218 584.922 243.625 583.089 238.358C581.255 233.092 575.297 213.172 575.756 190.046C576.214 166.92 590.651 154.327 593.859 152.724C597.068 151.121 604.171 149.518 617.463 149.518C630.983 149.518 692.169 149.06 711.648 149.976C731.127 150.892 767.793 155.471 783.605 155.7C799.417 155.7 815 156.616 829.208 163.027C843.416 169.439 851.437 174.018 861.978 184.78C872.519 195.541 882.373 208.592 891.082 233.779C899.79 258.966 902.081 293.54 901.852 305.447C901.623 317.353 892.915 370.016 880.311 396.118C867.707 422.221 847.77 463.664 829.437 494.117C811.333 524.799 790.021 544.262 776.959 571.509C763.897 598.757 747.168 630.354 742.127 654.854C737.085 679.354 741.21 737.512 741.439 751.479C741.668 765.446 738.002 826.81 736.398 840.777" stroke="#1E1F24" stroke-width="2.29161" stroke-miterlimit="10" stroke-linecap="round" stroke-linejoin="round"/>
<path d="M600.047 243.854L585.61 244.083C580.11 244.541 565.444 243.854 561.777 243.625C558.34 243.396 554.673 242.709 551.465 230.574C548.257 218.439 548.715 181.803 553.757 169.897C558.111 160.051 561.09 159.593 564.986 159.135" stroke="white" stroke-width="2.29161" stroke-miterlimit="10" stroke-linecap="round" stroke-linejoin="round"/>
<path d="M310.388 146.542C310.388 146.542 315.888 148.374 327.346 150.434L330.783 151.121" stroke="white" stroke-width="2.29161" stroke-miterlimit="10" stroke-linecap="round" stroke-linejoin="round"/>
<path d="M423.593 166.918C421.531 167.147 419.697 168.979 419.697 171.269C419.697 173.558 421.531 175.39 424.739 174.474C428.176 173.558 427.718 170.124 427.489 169.208C427.26 168.521 426.343 166.689 423.593 166.918Z" stroke="white" stroke-width="2.29161" stroke-miterlimit="10" stroke-linecap="round" stroke-linejoin="round"/>
<path d="M306.263 230.576C313.596 229.431 327.116 230.118 333.991 230.576C340.637 231.033 349.345 229.66 349.345 229.66" stroke="#1E1F24" stroke-width="2.29161" stroke-miterlimit="10" stroke-linecap="round" stroke-linejoin="round"/>
<path d="M414.729 232.786C420.115 233.555 427.489 230.115 441.468 229.199C455.218 228.283 465.072 227.596 468.738 226.909" stroke="#1E1F24" stroke-width="2.29161" stroke-miterlimit="10" stroke-linecap="round" stroke-linejoin="round"/>
<path d="M311.075 230.345C311.075 233.779 310.617 250.952 323.908 250.494C337.2 250.036 337.887 232.405 337.658 231.032" stroke="#1E1F24" stroke-width="2.29161" stroke-miterlimit="10" stroke-linecap="round" stroke-linejoin="round"/>
<path d="M420.614 233.093C420.614 233.093 421.989 235.153 422.906 240.191C423.823 245.228 427.718 254.387 437.801 252.784C447.884 251.181 447.884 239.046 447.884 235.382C447.884 231.948 448.114 228.971 448.114 228.971" stroke="#1E1F24" stroke-width="2.29161" stroke-miterlimit="10" stroke-linecap="round" stroke-linejoin="round"/>
<path d="M768.715 248.561C766.022 253.563 768.715 259.335 774.871 255.102" stroke="#1E1F24" stroke-width="2.29161" stroke-miterlimit="10" stroke-linecap="round" stroke-linejoin="round"/>
<path d="M281.333 528.334C282.333 524.001 285.666 524.001 286.333 528.334" stroke="#1E1F24" stroke-width="2.29161" stroke-miterlimit="10" stroke-linecap="round" stroke-linejoin="round"/>
<path d="M376.844 450.616C376.844 451.761 377.073 454.737 379.135 456.111" stroke="#1E1F24" stroke-width="2.29161" stroke-miterlimit="10" stroke-linecap="round" stroke-linejoin="round"/>
<path d="M493.488 441.225C493.717 442.599 492.571 446.491 491.196 447.178" stroke="#1E1F24" stroke-width="2.29161" stroke-miterlimit="10" stroke-linecap="round" stroke-linejoin="round"/>
<path d="M108.838 296.657C110.762 297.427 110.377 300.12 108.453 300.505" stroke="#1E1F24" stroke-width="2.29161" stroke-miterlimit="10" stroke-linecap="round" stroke-linejoin="round"/>
<path d="M311.534 230.343C311.534 230.343 310.617 241.334 314.742 245.913C318.867 250.492 325.055 251.408 329.867 248.432C334.679 245.455 336.742 238.815 337.2 237.441C337.658 236.067 337.888 230.801 337.888 230.801L311.534 230.343Z" fill="#1E1F24"/>
<path d="M420.614 233.321C420.614 233.321 430.239 230.802 436.885 229.887C443.76 228.971 447.655 228.971 447.655 228.971C447.655 228.971 447.655 242.022 446.51 244.77C445.364 247.517 442.385 252.097 435.281 252.555C428.177 253.013 424.968 246.143 424.51 245.228C424.052 244.312 420.614 233.321 420.614 233.321Z" fill="#1E1F24"/>
<path d="M287.932 511.975L282.432 524.339L287.473 523.881L287.932 511.975Z" fill="#1E1F24"/>
<path d="M109.643 297.205L110.33 300.411L116.059 298.808L109.643 297.205Z" fill="#1E1F24"/>
<path d="M766.19 252.323L762.981 261.711L770.315 256.444L766.19 252.323Z" fill="#1E1F24"/>
<path d="M379.594 117.005L374.553 155.472L388.073 155.701L410.531 155.472L403.656 115.402L379.594 117.005Z" fill="white"/>
</g>
</g>
<defs>
<clipPath id="clip0">
<rect width="902.667" height="884.967" fill="white" transform="translate(0.333496)"/>
</clipPath>
<clipPath id="clip1">
<rect width="902.667" height="884.967" fill="white" transform="translate(0.333496)"/>
</clipPath>
</defs>
</svg>
