<svg width="89" height="62" viewBox="0 0 89 62" fill="none" xmlns="http://www.w3.org/2000/svg">
<path d="M44.708 1.58638C39.2439 1.58638 34.8145 6.01586 34.8145 11.4799C34.8145 11.4799 36.0321 5.23941 44.708 5.23941C53.3838 5.23941 54.6015 11.4799 54.6015 11.4799C54.6015 6.01586 50.172 1.58638 44.708 1.58638Z" fill="black"/>
<path d="M54.6015 11.4799C54.6015 16.9439 50.172 21.3734 44.708 21.3734C39.2439 21.3734 34.8145 16.9439 34.8145 11.4799M54.6015 11.4799C54.6015 6.01586 50.172 1.58638 44.708 1.58638C39.2439 1.58638 34.8145 6.01586 34.8145 11.4799M54.6015 11.4799C54.6015 11.4799 53.3838 5.23941 44.708 5.23941C36.0321 5.23941 34.8145 11.4799 34.8145 11.4799" stroke="black" stroke-width="1.52039" stroke-miterlimit="10" stroke-linecap="round" stroke-linejoin="round"/>
<path d="M1.32797 17.5683C1.32797 41.4649 20.8106 60.9475 44.7073 60.9475C68.6039 60.9475 88.0865 41.4649 88.0865 17.5683" stroke="black" stroke-width="1.52039" stroke-miterlimit="10" stroke-linecap="round" stroke-linejoin="round"/>
<path d="M1.32797 17.5682C1.32797 17.5682 8.17733 54.8592 44.7073 54.8592C81.2372 54.8592 88.0865 17.5682 88.0865 17.5682C88.0865 17.5682 87.0211 60.9475 44.7073 60.9475C3.61109 60.9475 1.32797 17.5682 1.32797 17.5682Z" fill="black"/>
</svg>
