<svg width="1073" height="1470" viewBox="0 0 1073 1470" fill="none" xmlns="http://www.w3.org/2000/svg">
<path d="M368.971 299.917C368.971 299.917 369.928 301.193 372.797 287.164C375.986 273.135 385.232 242.208 380.768 197.252C376.305 152.296 358.45 122.644 348.885 109.571C339.319 96.4991 312.218 67.4849 289.581 51.2242C266.943 34.9635 232.19 25.3984 219.755 23.1666C207.321 20.9347 187.553 20.9347 186.596 22.5289C185.64 24.1231 185.002 27.6303 189.147 31.4563C193.292 35.2824 229.639 70.6733 233.465 100.963C237.291 131.252 233.784 138.904 231.871 141.774C229.958 144.644 228.045 148.788 223.581 142.412C219.118 136.035 219.118 125.194 217.842 122.644C216.567 120.093 214.016 117.861 213.379 123.919C212.741 129.977 214.973 173.339 207.64 190.875C200.306 208.411 182.451 248.266 163.002 272.497C143.553 296.729 115.496 327.019 115.496 327.019C115.496 327.019 86.1626 361.772 65.757 392.38C45.3514 422.989 29.4096 491.22 27.1777 497.915C24.9458 504.611 25.2647 515.77 21.7575 517.364C18.2503 518.959 15.6996 514.495 13.4677 509.075C11.2358 503.654 5.8156 492.814 5.8156 492.814C5.8156 492.814 0.0765239 500.466 2.30839 518.321C4.54025 536.176 11.8735 583.364 32.9168 626.088C53.96 668.812 82.6554 710.899 134.307 749.797C185.959 788.695 235.697 801.13 272.045 801.13C308.392 801.13 311.581 799.217 326.885 795.391C342.189 791.564 351.754 791.883 358.45 792.521C365.145 793.159 412.652 796.347 444.855 792.84C477.057 789.333 502.245 772.434 502.245 772.434L514.999 762.55C514.999 762.55 506.071 817.39 505.434 826.955C504.796 836.521 503.839 842.897 506.071 845.448C508.303 847.999 508.941 851.187 508.941 851.187C508.941 851.187 512.129 904.752 522.97 931.534C533.81 958.316 564.1 974.577 564.1 974.577C564.1 974.577 538.593 1025.59 530.941 1045.04C523.289 1064.49 512.129 1090 512.129 1090C512.129 1090 508.941 1091.91 500.013 1090.32C491.086 1088.72 465.26 1081.39 417.116 1090C368.971 1098.6 301.059 1123.16 301.059 1123.16C301.059 1123.16 272.364 1134.63 261.523 1135.59C250.683 1136.55 239.5 1134.5 239.5 1134.5C239.5 1134.5 238.567 1128.26 228.364 1125.71C218.161 1123.16 201.263 1117.74 192.017 1119.01C182.77 1120.29 181.176 1126.02 179.901 1132.4C178.625 1138.78 172.886 1166.2 172.886 1181.5C172.886 1196.81 174.162 1214.66 171.611 1226.78C169.06 1238.89 174.162 1272.69 182.77 1294.05C191.379 1315.41 199.35 1316.37 210.19 1312.54C221.031 1308.72 221.668 1302.34 222.306 1294.69C222.944 1287.04 222.944 1258.34 228.045 1248.78C233.147 1239.21 256.103 1209.24 258.335 1205.42C260.567 1201.59 262.798 1192.66 262.161 1190.11C261.523 1187.56 260.567 1186.92 264.074 1185.33C267.581 1183.73 307.436 1169.39 341.87 1166.52C376.305 1163.65 428.275 1161.42 478.651 1164.92C529.028 1168.43 547.52 1170.66 566.65 1155.36C585.781 1140.05 613.201 1106.89 613.201 1106.89L648.91 1067.36L674.417 1038.03L750.301 1095.74C750.301 1095.74 788.242 1121.24 788.561 1130.49C788.88 1139.73 793.025 1203.82 807.054 1234.43C821.083 1265.04 842.126 1297.56 851.691 1308.4C861.256 1319.24 899.198 1366.11 906.212 1380.46C913.227 1394.8 926.618 1421.91 926.618 1421.91C926.618 1421.91 925.024 1427.96 929.806 1436.25C934.589 1444.54 942.56 1463.67 946.386 1465.59C950.212 1467.5 960.415 1470.05 980.82 1452.51C1001.23 1434.98 1031.52 1398.95 1036.62 1392.25C1041.72 1385.56 1065.95 1347.94 1065.95 1347.94C1065.95 1347.94 1072.65 1333.27 1068.5 1330.08C1064.36 1326.89 1055.75 1322.43 1049.69 1322.11C1043.63 1321.79 1032.47 1324.98 1025.46 1330.4C1018.44 1335.82 999.95 1354.63 989.11 1359.73C978.269 1364.83 973.487 1366.75 966.154 1368.02C958.82 1369.3 955.951 1370.57 955.951 1370.57C955.951 1370.57 940.647 1346.34 928.531 1315.73C916.415 1285.12 892.821 1210.52 887.082 1189.47C881.343 1168.43 876.879 1147.71 875.923 1126.98C874.966 1106.26 875.285 1075.33 848.821 1044.72C822.358 1014.11 741.692 923.244 741.692 923.244C741.692 923.244 744.88 888.172 744.88 869.68C744.88 851.187 743.286 846.723 743.286 846.723C743.286 846.723 753.489 864.578 762.098 865.854C770.706 867.129 784.416 859.796 786.329 848.636C788.242 837.477 787.605 830.144 779.634 815.477C771.663 800.811 765.286 795.072 766.243 773.71C767.199 752.347 779.315 668.812 779.315 668.812L788.88 648.406C788.88 648.406 812.793 633.74 819.17 606.639C825.546 579.538 819.488 563.596 819.488 558.176C819.488 552.755 817.575 547.973 817.575 547.973C817.575 547.973 832.242 532.35 841.169 511.625C850.097 490.901 852.01 471.771 849.14 457.104C846.271 442.438 847.546 426.496 848.503 422.032C849.459 417.568 851.372 415.974 854.879 422.67C858.387 429.365 861.894 434.785 861.894 434.785C861.894 434.785 857.111 409.279 860.619 393.656C864.126 378.032 881.024 337.54 872.734 307.888C864.445 278.236 852.01 267.396 839.256 260.382C826.503 253.367 806.735 249.541 806.735 249.541C806.735 249.541 811.199 245.715 809.604 227.222C808.01 208.73 807.054 179.716 807.054 179.716L805.778 166.962C805.778 166.962 818.213 165.368 819.807 149.107C821.401 132.847 822.677 123.919 810.88 96.4991C799.083 69.0791 773.895 50.5866 753.808 42.9345C733.721 35.2824 696.417 19.9782 678.881 14.2391C661.345 8.50004 647.635 8.1812 645.403 8.50004C643.171 8.81888 642.215 12.0072 645.084 15.1956C647.954 18.384 670.591 41.0214 674.099 46.4417C677.606 51.8619 680.794 59.514 680.794 59.514L673.78 67.1661C673.78 67.1661 654.012 67.1661 639.345 57.2821C624.679 47.3982 600.447 31.7752 586.418 25.7173C572.39 19.6593 569.839 17.4275 565.694 20.6159C561.549 23.8042 564.419 30.181 565.375 34.9635C566.332 39.7461 579.404 78.9631 584.824 103.832C590.244 128.702 593 152.5 593 152.5C593 152.5 558.679 185.774 498.738 218.933C438.797 252.092 401.812 273.135 386.507 285.251C371.203 297.367 368.971 299.917 368.971 299.917Z" fill="white"/>
<path d="M515.311 763.061L518.499 756.685C518.499 756.685 522.325 758.279 524.557 757.322C526.789 756.685 528.383 756.685 528.383 756.685L534.122 764.656L542.731 765.931L548.789 775.815L552.5 783.5L538.586 780.279H520.731L512.76 784.105L515.311 763.061Z" fill="#1E1F24"/>
<path d="M559.948 429.239L582.585 454.108L592.15 464.949C592.15 464.949 572.064 461.76 555.484 473.876C538.905 485.673 518.18 509.267 510.528 518.194C502.876 527.122 490.441 546.571 490.441 546.571C490.441 546.571 473.543 544.339 468.123 542.745C463.021 540.832 450.906 534.455 450.906 534.455C450.906 534.455 466.529 527.759 477.688 520.745C488.847 513.731 496.18 507.354 496.18 507.354C496.18 507.354 491.717 506.397 487.572 505.122C483.427 503.847 481.514 502.89 481.514 502.89C481.514 502.89 488.528 500.658 494.586 498.108C500.644 495.557 505.746 491.731 505.746 491.731C505.746 491.731 481.195 493.963 468.123 492.687C454.732 491.412 435.92 487.586 435.92 487.586C435.92 487.586 490.122 470.688 511.485 458.572C532.847 446.456 559.948 429.239 559.948 429.239Z" fill="#1E1F24"/>
<path d="M475.775 565.064L480.238 571.441L483.746 561.875L475.775 565.064Z" fill="#1E1F24"/>
<path d="M766.872 450.92C766.872 450.92 779.944 450.92 782.495 452.195C785.046 453.471 790.466 459.21 791.741 462.717C793.335 466.224 794.292 469.731 794.292 469.731L794.611 454.427L808.321 442.311C808.321 442.311 799.393 441.674 792.698 436.891C786.002 432.108 770.379 420.63 770.379 420.63C770.379 420.63 771.973 427.964 774.843 431.471C777.393 434.978 784.408 440.717 781.857 444.543C779.306 448.05 773.249 450.601 766.872 450.92Z" fill="#1E1F24"/>
<path d="M861.566 349.211C861.566 349.848 859.334 359.413 857.74 362.921C856.465 366.747 852.639 379.819 851.682 383.645C851.045 387.471 843.393 405.645 836.059 415.529C828.726 425.413 817.886 439.123 817.886 439.123C817.886 439.123 830.958 434.978 836.059 436.891C841.161 439.123 846.581 444.224 846.581 444.224C846.581 444.224 846.9 427.963 847.856 423.181C848.813 418.398 850.726 415.529 852.639 420.311C854.552 425.094 860.291 431.471 860.291 431.471C860.291 431.471 858.059 404.369 860.291 393.21C862.523 382.051 873.363 351.761 874.001 336.457C874.957 321.153 873.682 298.197 864.436 284.805C855.19 271.414 840.204 259.936 831.914 255.791C823.625 251.646 806.407 249.733 806.407 249.733C806.407 249.733 796.205 263.125 789.19 266.951C782.176 270.777 768.147 273.327 768.147 273.646C768.147 273.965 777.074 341.24 777.074 341.24L777.393 349.848C777.393 349.848 817.248 354.631 834.146 353.993C851.045 353.356 857.103 352.08 857.103 352.08L861.566 349.211Z" fill="#1E1F24"/>
<path d="M651.135 322.109L655.599 327.848L656.875 320.196L651.135 322.109Z" fill="#1E1F24"/>
<path d="M665.483 346.341L696.092 300.747L686.845 298.516C686.845 298.516 704.381 288.313 711.396 281.617C718.41 274.922 728.294 267.907 728.294 267.907C728.294 267.907 740.729 274.603 750.294 274.922C759.859 275.24 772.613 273.965 772.613 273.965L776.12 292.458L758.584 304.892C758.584 304.892 751.888 318.602 750.613 323.704C749.337 328.805 749.019 335.182 752.207 337.095C755.395 339.008 752.207 346.341 752.207 346.341L736.265 355.269C736.265 355.269 733.094 344.051 731.5 341.5C729.906 338.949 722.874 341.24 720.961 345.066C719.048 348.892 713.946 360.051 719.685 371.529C725.425 383.007 732.12 383.326 734.671 383.326C737.222 383.326 745.83 379.5 745.83 379.5L756.671 411.384L744.874 438.485C744.874 438.485 747.743 443.905 752.207 446.137C756.671 448.369 762.091 450.92 762.091 450.92C762.091 450.92 744.874 449.963 730.845 442.63C716.816 435.297 704.062 423.819 690.671 402.138C676.642 380.457 665.483 346.341 665.483 346.341Z" fill="#1E1F24"/>
<path d="M780.581 292.458C780.581 292.458 767.19 290.226 766.552 290.545C766.234 290.864 757.306 300.11 757.306 300.11C757.306 300.11 762.726 316.371 763.683 321.153C764.639 325.936 766.234 333.907 761.132 336.776C756.031 339.646 749.654 337.095 749.654 337.095L735.944 350.805C735.944 350.805 736.263 357.501 740.408 365.79C744.553 374.08 746.466 376.95 746.466 376.95L743.596 381.732L755.712 411.703L762.089 407.239C762.089 407.239 762.089 374.399 766.234 363.559C770.379 352.718 781.219 337.733 781.219 337.733V292.458H780.581Z" fill="#1E1F24"/>
<path d="M798.755 362.602C798.755 362.602 798.437 371.529 803.219 371.848C807.683 372.167 808.639 370.254 808.958 368.022C809.277 365.79 809.915 363.877 809.915 363.877L798.755 362.602Z" fill="#1E1F24"/>
<path d="M795.567 349.849L796.205 353.037L812.784 363.877L821.712 365.472L821.393 362.602L804.176 351.443L795.567 349.849Z" fill="#1E1F24"/>
<path d="M843.073 363.239L851.682 362.602C851.682 362.602 850.088 371.529 846.899 371.21C843.392 370.573 843.073 363.239 843.073 363.239Z" fill="#1E1F24"/>
<path d="M727.975 180.227C727.975 180.227 733.077 178.633 734.99 178.314C736.903 177.995 738.816 177.995 738.816 177.995C738.816 177.995 740.091 192.343 734.033 192.662C727.975 192.98 727.975 180.227 727.975 180.227Z" fill="#1E1F24"/>
<path d="M785.683 177.038L795.886 174.807C795.886 174.807 796.205 187.241 792.06 187.879C787.596 188.835 785.683 177.038 785.683 177.038Z" fill="#1E1F24"/>
<path d="M509.253 848.829C509.253 848.829 532.847 853.93 541.455 854.568C549.745 855.206 562.499 855.524 562.499 855.524C562.499 855.524 565.049 874.974 581.629 886.771C598.208 898.567 611.281 909.408 614.15 911.64C617.02 913.872 622.759 918.654 641.57 918.017C660.382 917.379 668.034 910.046 669.947 906.22C671.86 902.394 676.005 894.104 672.816 882.944C669.947 871.785 662.932 856.162 662.932 856.162C662.932 856.162 692.903 852.017 712.671 844.046C732.439 836.394 744.555 825.554 744.555 825.554C744.555 825.554 745.511 863.177 744.874 880.394C744.236 897.611 742.323 923.437 742.323 923.437L848.177 1045.23C848.177 1045.23 813.424 1050.02 792.699 1067.87C771.975 1085.72 766.554 1105.81 766.554 1105.81C766.554 1105.81 700.874 1057.35 688.439 1048.1C676.005 1038.86 647.309 1019.41 635.512 1012.71C623.715 1006.02 565.368 977.32 552.615 967.436C539.861 957.552 524.557 945.755 514.673 899.843C509.253 871.466 509.253 848.829 509.253 848.829Z" fill="#1E1F24"/>
<path d="M567.281 971.581C567.281 971.581 547.832 1005.38 539.223 1026.1C530.615 1046.83 521.369 1068.19 521.369 1068.19C521.369 1068.19 549.107 1079.35 562.817 1099.12C576.527 1118.88 587.368 1135.78 587.368 1135.78C587.368 1135.78 637.744 1085.09 647.628 1072.01C657.512 1058.94 678.237 1033.44 678.237 1033.44L567.281 971.581Z" fill="#1E1F24"/>
<path d="M238.879 1135.46C238.879 1135.46 233 1149.5 226.5 1162.5C219.999 1175.5 220.355 1199.94 224.5 1206C228.645 1212.06 252.589 1187.43 252.589 1187.43L261.516 1186.48L316.356 1169.9C316.356 1169.9 306.472 1154.91 303.284 1143.43C300.096 1131.96 300.733 1123.99 300.733 1123.99C300.733 1123.99 266.618 1135.46 262.792 1136.42C258.966 1137.38 238.879 1135.46 238.879 1135.46Z" fill="#1E1F24"/>
<path d="M890.899 1355.46C890.899 1355.46 896.957 1345.26 909.711 1337.92C922.783 1330.59 932.667 1328.04 932.667 1328.04C932.667 1328.04 944.464 1353.55 948.928 1360.24C953.391 1366.94 956.898 1371.72 956.898 1371.72C956.898 1371.72 954.348 1375.23 953.391 1377.78C952.435 1380.33 955.304 1384.79 955.304 1384.79C955.304 1384.79 971.825 1389.12 967.999 1395.5C964.173 1401.88 961.999 1405.5 953.391 1409.5C944.784 1413.5 926.609 1421.46 926.609 1421.46C926.609 1421.46 913.537 1389.9 910.029 1383.2C906.203 1376.82 890.899 1355.46 890.899 1355.46Z" fill="#1E1F24"/>
<path d="M984 1427.84C978.898 1432.94 957.855 1451.11 954.985 1455.26C952.116 1459.4 947.971 1465.14 949.246 1466.42C950.522 1467.69 962.319 1469.29 977.623 1455.58C992.927 1441.87 1025.77 1409.03 1035.97 1394.36C1046.17 1379.69 1064.03 1354.82 1066.58 1346.85C1069.13 1338.88 1070.4 1335.37 1068.49 1334.42C1066.58 1333.46 1056.69 1337.29 1047.45 1350.36C1038.2 1363.43 1012.38 1400.42 1012.38 1400.42C1012.38 1400.42 991.971 1419.87 984 1427.84Z" fill="#1E1F24"/>
<path d="M573.02 724.801L573.977 736.279L572.064 741.381L567.919 744.569L573.339 755.091L577.803 737.873L585.136 722.569L597.89 701.845L589.6 700.888L583.223 695.787L580.672 687.497L580.035 699.294L581.31 712.366L580.354 719.381L579.716 723.207L575.571 724.163L573.02 724.801Z" fill="#1E1F24"/>
<path d="M644.44 100.836L643.802 107.532L642.208 110.083V115.822L644.121 119.329C644.121 119.329 648.903 113.271 649.541 108.807C650.179 104.344 644.44 100.836 644.44 100.836Z" fill="#1E1F24"/>
<path d="M713.628 81.0689C707.251 80.75 696.729 83.9384 689.077 93.1847C681.425 102.431 680.788 106.895 681.425 108.489C682.063 110.083 690.353 109.127 695.135 106.895C699.918 104.663 712.352 100.518 714.584 99.8803C716.497 99.2426 721.28 96.3731 720.961 91.2717C720.642 86.1703 713.628 81.0689 713.628 81.0689Z" fill="#1E1F24"/>
<path d="M775.799 71.8221C770.697 71.1844 761.77 69.5902 757.625 72.4597C753.48 75.3293 751.567 83.619 752.524 86.4886C753.799 89.3581 762.089 91.59 767.19 89.9958C772.292 88.4016 777.393 85.5321 780.581 84.2567C783.77 82.9814 787.596 81.0683 786.958 78.5176C786.002 75.9669 779.625 72.4597 775.799 71.8221Z" fill="#1E1F24"/>
<path d="M758.263 517.557L784.408 513.093L765.915 531.586L764.958 522.658L758.263 517.557Z" fill="#1E1F24"/>
<path d="M605.542 274.921C619.889 285.443 655.28 318.602 667.715 351.124C680.15 383.645 694.497 424.456 729.888 442.311C757.946 456.659 783.134 451.876 792.062 449.325" stroke="#1E1F24" stroke-width="3.18837" stroke-miterlimit="10" stroke-linecap="round" stroke-linejoin="round"/>
<path d="M520.5 387.5C533.573 398.34 580.673 452.514 594.064 467.499C607.455 482.165 649.542 515.006 699.599 518.513C749.656 522.02 783.5 512.5 783.5 512.5" stroke="#1E1F24" stroke-width="3.18837" stroke-miterlimit="10" stroke-linecap="round" stroke-linejoin="round"/>
<path d="M794.054 458.712C793.416 451.698 799.076 443.905 827.771 437.529C831.916 436.572 836.38 437.528 839.25 438.485C841.8 439.442 843.713 441.036 844.989 443.268C849.771 452.195 852.003 472.919 848.815 486.311C840.844 522.02 821.714 543.382 815.337 550.078C806.728 559.324 784.728 572.397 771.975 566.339C759.221 560.281 756.671 540.194 761.772 535.412C766.874 530.629 789.83 511.818 793.975 492.369C798.12 472.919 791.424 442.949 791.424 442.949" stroke="#1E1F24" stroke-width="3.18837" stroke-miterlimit="10" stroke-linecap="round" stroke-linejoin="round"/>
<path d="M790.786 145.154C790.786 145.154 798.438 145.154 804.496 143.879" stroke="#1E1F24" stroke-width="3.18837" stroke-miterlimit="10" stroke-linecap="round" stroke-linejoin="round"/>
<path d="M753.163 553.266C753.163 553.266 763.366 552.309 771.656 547.846" stroke="#1E1F24" stroke-width="3.18837" stroke-miterlimit="10" stroke-linecap="round" stroke-linejoin="round"/>
<path d="M767.192 571.44C767.192 571.44 776.12 567.295 781.54 559.324" stroke="#1E1F24" stroke-width="3.18837" stroke-miterlimit="10" stroke-linecap="round" stroke-linejoin="round"/>
<path d="M787.598 572.078C787.598 572.078 790.467 569.208 792.699 565.063" stroke="#1E1F24" stroke-width="3.18837" stroke-miterlimit="10" stroke-linecap="round" stroke-linejoin="round"/>
<path d="M591.832 465.586C585.774 463.036 562.818 464.63 540.818 485.992C518.818 507.354 481.514 545.296 477.688 590.571C472.268 685.903 514.354 747.757 518.499 755.728C520.093 758.917 525.833 758.598 529.977 754.134C538.586 744.569 544.325 734.047 556.122 728.946C567.919 723.844 573.339 724.163 575.89 724.163C578.441 724.163 581 723 581 719" stroke="#1E1F24" stroke-width="3.18837" stroke-miterlimit="10" stroke-linecap="round" stroke-linejoin="round"/>
<path d="M608.73 692.598C608.73 692.598 581.629 712.366 573.977 753.815C566.006 795.264 562.498 815.67 562.18 833.524C561.542 851.379 561.861 867.321 573.658 879.118C585.455 890.915 609.686 904.944 615.425 912.277C621.165 919.611 653.367 922.161 665.802 911.321C678.236 900.48 674.729 881.988 669.947 871.466C665.164 860.945 656.555 842.771 661.019 830.336C665.483 817.901 694.816 755.728 700.874 737.554C706.932 719.381 720.961 671.874 716.178 637.121C711.395 602.367 691.309 576.86 680.149 568.89C665.483 558.687 639.976 551.354 639.976 551.354" stroke="#1E1F24" stroke-width="3.18837" stroke-miterlimit="10" stroke-linecap="round" stroke-linejoin="round"/>
<path d="M580.991 730.221C580.991 730.221 580.991 723.207 580.672 713.642C579.078 687.816 577.803 636.483 588.324 608.106C602.991 569.208 639.976 551.672 639.976 551.672C639.976 551.672 643.802 538.6 649.86 532.223" stroke="#1E1F24" stroke-width="3.18837" stroke-miterlimit="10" stroke-linecap="round" stroke-linejoin="round"/>
<path d="M419.341 590.252C419.341 590.252 439.427 570.165 483.746 563.15" stroke="#1E1F24" stroke-width="3.18837" stroke-miterlimit="10" stroke-linecap="round" stroke-linejoin="round"/>
<path d="M435.282 564.426C435.282 564.426 445.166 571.121 454.732 570.484" stroke="#1E1F24" stroke-width="3.18837" stroke-miterlimit="10" stroke-linecap="round" stroke-linejoin="round"/>
<path d="M491.717 545.933C474.819 545.614 461.109 542.107 451.225 534.455C468.442 527.76 483.746 518.513 497.137 507.354C491.717 506.397 486.934 504.803 482.152 502.571C491.079 500.34 499.05 496.513 507.021 491.412C478.645 493.963 454.413 493.325 436.877 487.267C436.877 487.267 482.471 473.238 511.166 458.891C539.543 444.543 560.586 429.876 560.586 429.876" stroke="#1E1F24" stroke-width="3.18837" stroke-miterlimit="10" stroke-linecap="round" stroke-linejoin="round"/>
<path d="M515.311 400.225C515.311 400.225 528.167 399.493 535.5 403" stroke="#1E1F24" stroke-width="3.18837" stroke-miterlimit="10" stroke-linecap="round" stroke-linejoin="round"/>
<path d="M233.778 475.151C233.778 475.151 199.981 539.875 223.894 588.339" stroke="#1E1F24" stroke-width="3.18837" stroke-miterlimit="10" stroke-linecap="round" stroke-linejoin="round"/>
<path d="M130.155 505.76C130.155 505.76 111.663 568.252 148.967 619.266" stroke="#1E1F24" stroke-width="3.18837" stroke-miterlimit="10" stroke-linecap="round" stroke-linejoin="round"/>
<path d="M241.429 674.743C241.429 674.743 258.965 709.178 282.878 725.757" stroke="#1E1F24" stroke-width="3.18837" stroke-miterlimit="10" stroke-linecap="round" stroke-linejoin="round"/>
<path d="M292.443 752.221C292.443 752.221 312.849 770.713 338.675 774.22" stroke="#1E1F24" stroke-width="3.18837" stroke-miterlimit="10" stroke-linecap="round" stroke-linejoin="round"/>
<path d="M109.75 602.367C66.0695 511.18 125.373 367.384 221.981 317.646" stroke="#1E1F24" stroke-width="3.18837" stroke-miterlimit="10" stroke-linecap="round" stroke-linejoin="round"/>
<path d="M191.691 307.124C191.691 307.124 223.575 290.226 239.198 273.646" stroke="#1E1F24" stroke-width="3.18837" stroke-miterlimit="10" stroke-linecap="round" stroke-linejoin="round"/>
<path d="M303.284 730.54C257.052 682.076 249.081 614.483 248.125 608.106C231.864 493.325 299.777 380.138 332.298 337.732C366.732 293.095 418.384 262.805 470.992 235.067C523.6 207.328 573.02 177.038 592.15 150.575" stroke="#1E1F24" stroke-width="3.18837" stroke-miterlimit="10" stroke-linecap="round" stroke-linejoin="round"/>
<path d="M746.786 378.543C734.67 389.384 720.323 380.775 717.134 367.703C713.946 354.631 718.729 345.066 726.062 341.24C733.395 337.413 736.584 360.37 739.134 365.152C742.323 370.573 746.786 378.543 746.786 378.543Z" stroke="#1E1F24" stroke-width="3.18837" stroke-miterlimit="10" stroke-linecap="round" stroke-linejoin="round"/>
<path d="M368.646 299.791C368.646 299.791 412.645 188.835 342.501 101.155C272.357 13.475 191.691 20.8083 187.865 22.0836C184.039 23.359 186.59 28.4604 191.691 33.2429C196.792 38.0255 221.024 59.7064 231.865 95.0973C242.705 130.488 230.908 143.879 228.676 145.792C226.444 147.705 219.749 138.778 219.43 130.807C219.111 122.836 217.198 115.822 214.647 118.691C212.097 121.561 214.966 177.357 207.314 194.256C199.343 211.154 182.764 255.791 143.547 295.965C104.33 336.138 78.8226 371.848 59.6924 404.051C40.5621 436.253 25.2579 505.441 24.6203 512.455C23.9826 519.47 18.8812 520.745 15.6928 514.687C12.5044 508.629 8.35956 498.426 7.40304 494.282C6.44653 490.137 2.62048 495.238 2.30165 502.252C1.98281 509.267 2.62049 594.078 60.9677 674.743C119.315 755.409 188.184 791.757 255.777 799.728C323.371 807.699 328.472 788.887 353.66 792.394C378.848 795.902 446.442 797.496 472.587 786.655C498.731 775.815 512.441 765.612 519.137 757.641" stroke="#1E1F24" stroke-width="3.18837" stroke-miterlimit="10" stroke-linecap="round" stroke-linejoin="round"/>
<path d="M542.73 766.25C544.006 769.438 548.151 774.539 549.745 778.684C553.252 786.655 561.223 792.394 566.324 793.351" stroke="#1E1F24" stroke-width="3.18837" stroke-miterlimit="10" stroke-linecap="round" stroke-linejoin="round"/>
<path d="M516.267 761.148C516.267 761.148 513.398 773.901 511.166 787.93C508.934 801.959 506.064 816.626 505.427 823.002C504.47 830.973 502.557 845.64 508.615 848.19C514.673 850.741 536.354 854.567 561.861 855.524" stroke="#1E1F24" stroke-width="3.18837" stroke-miterlimit="10" stroke-linecap="round" stroke-linejoin="round"/>
<path d="M635.193 884.857C640.295 888.365 643.483 898.249 642.526 908.451" stroke="#1E1F24" stroke-width="3.18837" stroke-miterlimit="10" stroke-linecap="round" stroke-linejoin="round"/>
<path d="M651.135 882.944C654.961 884.22 661.657 893.466 658.787 903.988" stroke="#1E1F24" stroke-width="3.18837" stroke-miterlimit="10" stroke-linecap="round" stroke-linejoin="round"/>
<path d="M661.338 876.248C661.338 876.248 666.759 879.755 667.396 885.495" stroke="#1E1F24" stroke-width="3.18837" stroke-miterlimit="10" stroke-linecap="round" stroke-linejoin="round"/>
<path d="M663.5 855.5C670.515 854.862 696.729 850.103 718.729 841.495C740.729 832.567 747.743 821.089 747.743 818.538C748.062 816.307 747.425 793.031 747.106 779.003C746.787 764.974 755.077 718.105 763.366 700.25C771.656 682.395 790.149 649.873 799.714 619.584C809.279 588.976 805.134 558.686 805.134 558.686" stroke="#1E1F24" stroke-width="3.18837" stroke-miterlimit="10" stroke-linecap="round" stroke-linejoin="round"/>
<path d="M744.874 848.51C744.874 848.51 750.932 863.814 762.41 865.727C773.888 867.64 788.236 857.118 787.917 841.177C787.598 825.554 779.308 815.032 771.018 803.235C762.729 791.438 765.279 772.945 767.192 755.09C769.105 737.236 773.569 691.642 778.352 669.961" stroke="#1E1F24" stroke-width="3.18837" stroke-miterlimit="10" stroke-linecap="round" stroke-linejoin="round"/>
<path d="M771.018 146.749C770.7 144.517 768.786 141.01 762.729 141.648C756.671 142.285 751.888 147.068 751.25 149.618C750.613 152.169 752.845 159.502 755.714 163.966C758.903 168.43 762.729 169.705 766.873 169.068C771.018 168.43 771.975 165.879 771.975 163.966C772.294 162.053 771.656 150.575 771.018 146.749Z" stroke="#1E1F24" stroke-width="3.18837" stroke-miterlimit="10" stroke-linecap="round" stroke-linejoin="round"/>
<path d="M771.019 145.792C771.019 144.517 773.569 140.691 781.54 140.691C787.917 140.691 791.105 143.56 790.787 147.068C790.468 149.618 789.192 159.502 786.642 163.647C784.091 167.473 782.816 168.111 779.308 168.43C776.439 168.749 772.319 168.145 772 164" stroke="#1E1F24" stroke-width="3.18837" stroke-miterlimit="10" stroke-linecap="round" stroke-linejoin="round"/>
<path d="M762.091 104.343C755.395 104.343 747.424 107.212 743.598 110.72C740.091 114.227 739.135 118.372 740.41 119.966C741.685 121.56 744.236 122.517 748.062 122.835C752.207 123.154 755.395 128.574 756.671 130.487C757.946 132.401 760.816 134.951 765.598 133.995C770.381 133.038 770.7 128.256 770.7 125.067C770.7 121.879 771.337 116.14 773.25 113.908C775.801 111.676 778.033 103.705 762.091 104.343Z" stroke="#1E1F24" stroke-width="3.18837" stroke-miterlimit="10" stroke-linecap="round" stroke-linejoin="round"/>
<path d="M786.641 106.894C786.641 106.894 802.583 93.5023 829.365 90.314" stroke="#1E1F24" stroke-width="3.18837" stroke-miterlimit="10" stroke-linecap="round" stroke-linejoin="round"/>
<path d="M791.105 114.546C791.105 114.546 808.96 107.851 835.742 107.851" stroke="#1E1F24" stroke-width="3.18837" stroke-miterlimit="10" stroke-linecap="round" stroke-linejoin="round"/>
<path d="M727.975 119.648C727.975 119.648 703.425 118.053 682.7 128.256" stroke="#1E1F24" stroke-width="3.18837" stroke-miterlimit="10" stroke-linecap="round" stroke-linejoin="round"/>
<path d="M731.801 128.575C731.801 128.575 709.802 131.125 691.947 147.386" stroke="#1E1F24" stroke-width="3.18837" stroke-miterlimit="10" stroke-linecap="round" stroke-linejoin="round"/>
<path d="M807.685 121.561C807.685 121.561 822.032 121.561 830.003 125.705" stroke="#1E1F24" stroke-width="3.18837" stroke-miterlimit="10" stroke-linecap="round" stroke-linejoin="round"/>
<path d="M723.193 140.372C723.193 140.372 709.801 146.749 701.193 158.227" stroke="#1E1F24" stroke-width="3.18837" stroke-miterlimit="10" stroke-linecap="round" stroke-linejoin="round"/>
<path d="M681.106 108.169C681.106 110.401 685.889 111.995 692.266 108.169C698.642 104.343 706.613 101.792 712.352 100.517C718.091 99.5605 721.917 96.0533 720.004 87.7635C718.091 79.4738 710.439 78.1984 700.555 83.6186C690.671 89.0389 681.744 100.517 681.106 108.169Z" stroke="#1E1F24" stroke-width="3.18837" stroke-miterlimit="10" stroke-linecap="round" stroke-linejoin="round"/>
<path d="M759.54 71.5032C753.801 72.4597 752.207 77.5611 752.207 83.619C752.207 89.6769 758.902 91.2711 765.279 89.6769C771.656 88.0827 774.525 85.532 780.902 83.9378C786.004 82.9813 787.917 80.1118 785.366 76.6046C783.134 73.0974 773.569 69.2713 759.54 71.5032Z" stroke="#1E1F24" stroke-width="3.18837" stroke-miterlimit="10" stroke-linecap="round" stroke-linejoin="round"/>
<path d="M745.83 50.141C732.439 48.5469 698.961 47.9092 682.381 59.7062C665.802 71.5031 657.512 100.517 657.512 100.517" stroke="#1E1F24" stroke-width="3.18837" stroke-miterlimit="10" stroke-linecap="round" stroke-linejoin="round"/>
<path d="M674.092 67.6769C671.541 68.9523 652.092 65.7639 644.44 60.9814C636.788 56.1988 606.18 37.0686 599.165 32.286C592.151 27.5035 574.296 19.5325 569.832 18.8948C566.644 18.576 562.818 23.0397 565.05 32.286" stroke="#1E1F24" stroke-width="3.18837" stroke-miterlimit="10" stroke-linecap="round" stroke-linejoin="round"/>
<path d="M630.411 129.85C635.831 127.619 643.802 120.285 646.353 116.459C648.903 112.633 652.411 104.981 647.628 102.43C642.845 99.8797 627.86 90.3146 620.208 82.6625C612.556 75.0104 591.194 51.0976 587.049 45.9962C582.904 40.8948 573.658 29.7355 569.832 29.0978C566.006 28.1413 564.412 29.0978 565.049 32.605C565.687 36.1123 573.339 59.0685 578.122 75.9669C582.904 92.8653 588.962 126.981 590.237 137.184C591.513 147.386 596.295 168.43 594.382 174.169" stroke="#1E1F24" stroke-width="3.18837" stroke-miterlimit="10" stroke-linecap="round" stroke-linejoin="round"/>
<path d="M627.542 113.59C627.542 113.59 640.614 116.141 647.947 112.952" stroke="#1E1F24" stroke-width="3.18837" stroke-miterlimit="10" stroke-linecap="round" stroke-linejoin="round"/>
<path d="M632.324 104.662C632.324 104.662 640.295 109.764 648.904 108.807" stroke="#1E1F24" stroke-width="3.18837" stroke-miterlimit="10" stroke-linecap="round" stroke-linejoin="round"/>
<path d="M556.76 1.99658C556.76 1.99658 561.529 19.1305 569.5 22" stroke="white" stroke-width="3.18837" stroke-miterlimit="10" stroke-linecap="round" stroke-linejoin="round"/>
<path d="M553 14C553 14 562.08 20.5435 567.5 21.5" stroke="white" stroke-width="3.18837" stroke-miterlimit="10" stroke-linecap="round" stroke-linejoin="round"/>
<path d="M554.594 21.9701C554.594 21.9701 560.334 21.6513 565.435 19.7383" stroke="white" stroke-width="3.18837" stroke-miterlimit="10" stroke-linecap="round" stroke-linejoin="round"/>
<path d="M561.542 20.4889C564.093 19.8512 567.319 24.9056 567 26.4998" stroke="white" stroke-width="3.18837" stroke-miterlimit="10" stroke-linecap="round" stroke-linejoin="round"/>
<path d="M681.425 60.3435C681.106 57.474 676.961 49.5031 666.758 38.9814C656.556 28.4598 647.947 19.2135 644.44 16.344C640.933 13.4745 642.527 9.01074 650.498 9.01074C658.15 9.01074 690.99 16.0252 724.149 31.3293C757.308 46.6335 768.149 45.0393 789.511 65.4449C810.873 85.8505 818.206 109.444 821.076 125.705C823.945 141.966 818.525 158.864 815.974 162.053C813.424 165.241 807.047 167.792 807.047 167.792" stroke="#1E1F24" stroke-width="3.18837" stroke-miterlimit="10" stroke-linecap="round" stroke-linejoin="round"/>
<path d="M633.599 2.31543C633.599 2.31543 639.5 10 650 9" stroke="#1E1F24" stroke-width="3.18837" stroke-miterlimit="10" stroke-linecap="round" stroke-linejoin="round"/>
<path d="M625.948 8.69238C625.948 8.69238 634.556 10.9242 644.121 9.64889" stroke="#1E1F24" stroke-width="3.18837" stroke-miterlimit="10" stroke-linecap="round" stroke-linejoin="round"/>
<path d="M633.918 14.4316C633.918 14.4316 638.063 13.7939 642.527 11.8809" stroke="#1E1F24" stroke-width="3.18837" stroke-miterlimit="10" stroke-linecap="round" stroke-linejoin="round"/>
<path d="M737.54 372.804C735.946 368.659 733.714 371.529 730.526 371.529C727.337 371.529 725.105 367.384 724.787 361.326C724.468 355.268 727.656 352.399 729.569 351.761C733.076 350.167 737.54 353.674 736.902 356.543C736.265 359.413 734.033 360.051 732.439 361.645C731.163 362.92 732.439 365.79 732.439 365.79" stroke="#1E1F24" stroke-width="3.18837" stroke-miterlimit="10" stroke-linecap="round" stroke-linejoin="round"/>
<path d="M511 788.5C511.638 784.036 517.861 780.597 522.006 780.597C526.151 780.597 533.165 781.235 537.629 781.235C542.093 781.235 552.761 784.08 558.5 789.5" stroke="#1E1F24" stroke-width="3.18837" stroke-miterlimit="10" stroke-linecap="round" stroke-linejoin="round"/>
<path d="M508.934 766.887C511.804 764.656 515.63 764.974 514.673 768.482" stroke="#1E1F24" stroke-width="3.18837" stroke-miterlimit="10" stroke-linecap="round" stroke-linejoin="round"/>
<path d="M516.267 751.901C517.543 754.452 517.224 759.872 514.035 763.061" stroke="#1E1F24" stroke-width="3.18837" stroke-miterlimit="10" stroke-linecap="round" stroke-linejoin="round"/>
<path d="M601.078 699.612C598.209 702.482 584.817 702.8 582.585 692.916C580.991 684.946 579.681 670.065 580 660.5" stroke="#1E1F24" stroke-width="3.18837" stroke-miterlimit="10" stroke-linecap="round" stroke-linejoin="round"/>
<path d="M527.5 394C530 396.5 530 400 526.5 400.5" stroke="#1E1F24" stroke-width="3.18837" stroke-miterlimit="10" stroke-linecap="round" stroke-linejoin="round"/>
<path d="M529.5 400.5C538.5 404 540.036 407.217 544.5 412" stroke="#1E1F24" stroke-width="3.18837" stroke-miterlimit="10" stroke-linecap="round" stroke-linejoin="round"/>
<path d="M443.572 568.57C446.442 569.527 446.761 573.353 444.21 574.628" stroke="#1E1F24" stroke-width="3.18837" stroke-miterlimit="10" stroke-linecap="round" stroke-linejoin="round"/>
<path d="M446.761 571.759L449.63 571.121" stroke="#1E1F24" stroke-width="3.18837" stroke-miterlimit="10" stroke-linecap="round" stroke-linejoin="round"/>
<path d="M470.674 565.701C477.369 564.107 481.051 572.978 478.5 583.5" stroke="#1E1F24" stroke-width="3.18837" stroke-miterlimit="10" stroke-linecap="round" stroke-linejoin="round"/>
<path d="M476.732 564.426C479.282 564.107 485.021 559.643 486.615 556.455" stroke="#1E1F24" stroke-width="3.18837" stroke-miterlimit="10" stroke-linecap="round" stroke-linejoin="round"/>
<path d="M633.599 555.179C637.107 553.266 643.312 552.225 646.5 553.5" stroke="#1E1F24" stroke-width="3.18837" stroke-miterlimit="10" stroke-linecap="round" stroke-linejoin="round"/>
<path d="M642.527 99.5605C645.715 101.474 646.353 109.444 640.614 108.169" stroke="#1E1F24" stroke-width="3.18837" stroke-miterlimit="10" stroke-linecap="round" stroke-linejoin="round"/>
<path d="M638.701 107.532C642.527 108.488 644.44 114.546 638.701 114.546" stroke="#1E1F24" stroke-width="3.18837" stroke-miterlimit="10" stroke-linecap="round" stroke-linejoin="round"/>
<path d="M638.063 114.546C641.57 114.546 644.44 119.329 640.614 122.836" stroke="#1E1F24" stroke-width="3.18837" stroke-miterlimit="10" stroke-linecap="round" stroke-linejoin="round"/>
<path d="M634 14.4999C635.913 13.8622 640.906 12.4058 642.5 14" stroke="#1E1F24" stroke-width="3.18837" stroke-miterlimit="10" stroke-linecap="round" stroke-linejoin="round"/>
<path d="M565.368 744.888C570.151 742.018 573.776 756.399 572.5 761.5" stroke="#1E1F24" stroke-width="3.18837" stroke-miterlimit="10" stroke-linecap="round" stroke-linejoin="round"/>
<path d="M750.5 518C756.558 517.362 764.323 519.151 765.598 523.615C766.873 527.76 765.5 529.5 761.5 535.5" stroke="#1E1F24" stroke-width="3.18837" stroke-miterlimit="10" stroke-linecap="round" stroke-linejoin="round"/>
<path d="M527.745 756.047C527.745 756.047 528.702 761.786 533.803 764.655C538.586 767.844 541.774 766.25 544.962 762.424C548.151 758.916 558.354 748.076 565.368 744.887C572.383 741.38 573.658 741.38 574.614 737.554C575.252 733.728 573.339 724.482 573.339 724.482" stroke="#1E1F24" stroke-width="3.18837" stroke-miterlimit="10" stroke-linecap="round" stroke-linejoin="round"/>
<path d="M524.557 813.438C524.557 813.438 524.876 838.307 526.789 851.698" stroke="#1E1F24" stroke-width="3.18837" stroke-miterlimit="10" stroke-linecap="round" stroke-linejoin="round"/>
<path d="M509.572 848.829C509.572 848.829 510.528 890.277 519.137 919.292C527.746 948.306 543.687 966.161 584.817 986.566C639.02 1013.67 665.483 1030.25 682.382 1043C699.28 1055.75 762.729 1104.22 779.308 1116.65C795.888 1129.09 790.149 1150.13 794.612 1186.8C799.076 1223.46 824.264 1281.17 871.771 1332.19C871.771 1332.19 901.742 1366.3 914.176 1392.77C926.611 1419.23 927.568 1422.1 927.568 1422.1" stroke="#1E1F24" stroke-width="3.18837" stroke-miterlimit="10" stroke-linecap="round" stroke-linejoin="round"/>
<path d="M848.177 1044.91C837.018 1045.23 804.815 1055.43 790.149 1070.1C775.482 1084.77 761.772 1103.9 767.192 1107.72" stroke="black" stroke-width="3.18837" stroke-miterlimit="10" stroke-linecap="round" stroke-linejoin="round"/>
<path d="M744.874 823.959C744.874 823.959 744.236 865.408 744.236 881.669C744.236 897.929 742.323 924.074 742.323 924.074" stroke="#1E1F24" stroke-width="3.18837" stroke-miterlimit="10" stroke-linecap="round" stroke-linejoin="round"/>
<path d="M228.676 1249.61C234.096 1234.62 253.864 1211.67 258.966 1204.33C264.067 1197.32 265.023 1188.71 261.197 1186.8C257.371 1184.88 251.951 1187.75 243.98 1195.72C235.69 1203.69 227.082 1210.39 224.212 1205.93C221.343 1201.78 219.43 1188.07 222.618 1175.32C225.806 1162.88 235.69 1141.84 237.603 1138.65C239.516 1135.46 242.067 1131.32 234.734 1127.49C227.401 1123.35 203.807 1118.56 196.792 1119.2C189.778 1119.52 182.445 1120.16 180.85 1132.27C179.575 1140.56 174.474 1159.06 174.155 1181.69C173.836 1204.33 176.068 1207.84 174.474 1219C172.879 1229.84 170.329 1263 182.126 1288.51C193.923 1314.01 196.155 1317.52 208.27 1314.65C220.386 1311.78 223.256 1304.77 223.575 1297.43C223.893 1289.46 221.024 1270.65 228.676 1249.61Z" stroke="#1E1F24" stroke-width="3.18837" stroke-miterlimit="10" stroke-linecap="round" stroke-linejoin="round"/>
<path d="M521.369 1068.19C551.658 1075.52 588.913 1131.36 587 1135.5" stroke="#1E1F24" stroke-width="3.18837" stroke-miterlimit="10" stroke-linecap="round" stroke-linejoin="round"/>
<path d="M229.951 1216.45C229.951 1216.45 233.459 1228.88 236.328 1234.3" stroke="#1E1F24" stroke-width="3.18837" stroke-miterlimit="10" stroke-linecap="round" stroke-linejoin="round"/>
<path d="M218.792 1235.26C218.792 1235.26 224.531 1232.71 229.314 1232.39" stroke="#1E1F24" stroke-width="3.18837" stroke-miterlimit="10" stroke-linecap="round" stroke-linejoin="round"/>
<path d="M217.198 1242.91C217.198 1242.91 218.792 1250.88 221.024 1255.35" stroke="#1E1F24" stroke-width="3.18837" stroke-miterlimit="10" stroke-linecap="round" stroke-linejoin="round"/>
<path d="M207.633 1264.27C207.633 1264.27 212.734 1257.26 216.241 1255.35" stroke="#1E1F24" stroke-width="3.18837" stroke-miterlimit="10" stroke-linecap="round" stroke-linejoin="round"/>
<path d="M765.598 675.381C750.294 689.41 726.062 722.569 719.366 748.076" stroke="#1E1F24" stroke-width="3.18837" stroke-miterlimit="10" stroke-linecap="round" stroke-linejoin="round"/>
<path d="M735.946 734.366C735.946 734.366 742.323 729.902 747.424 726.714" stroke="#1E1F24" stroke-width="3.18837" stroke-miterlimit="10" stroke-linecap="round" stroke-linejoin="round"/>
<path d="M243.024 643.178C250.038 652.425 261.835 669.961 269.487 680.163" stroke="#1E1F24" stroke-width="3.18837" stroke-miterlimit="10" stroke-linecap="round" stroke-linejoin="round"/>
<path d="M577.803 589.933C569.194 598.222 563.774 610.976 561.861 617.353" stroke="#1E1F24" stroke-width="3.18837" stroke-miterlimit="10" stroke-linecap="round" stroke-linejoin="round"/>
<path d="M585.773 615.759C576.527 622.136 567.281 635.846 565.049 641.585" stroke="#1E1F24" stroke-width="3.18837" stroke-miterlimit="10" stroke-linecap="round" stroke-linejoin="round"/>
<path d="M627.222 532.223C627.222 532.223 630 547.5 630.5 550.5C631 553.5 630.87 557.087 628 559" stroke="#1E1F24" stroke-width="3.18837" stroke-miterlimit="10" stroke-linecap="round" stroke-linejoin="round"/>
<path d="M630.5 550.5C631.138 553.37 634.312 554.594 637.5 553" stroke="#1E1F24" stroke-width="3.18837" stroke-miterlimit="10" stroke-linecap="round" stroke-linejoin="round"/>
<path d="M588.324 608.106C586.73 611.295 585.455 616.077 580.991 619.584" stroke="black" stroke-width="3.18837" stroke-miterlimit="10" stroke-linecap="round" stroke-linejoin="round"/>
<path d="M578.44 622.135C580.354 620.222 584.817 618.628 583.861 624.048" stroke="black" stroke-width="3.18837" stroke-miterlimit="10" stroke-linecap="round" stroke-linejoin="round"/>
<path d="M751.25 150.256C751.25 150.256 720.961 148.024 712.99 156.633C705.019 165.242 694.497 185.009 698.961 207.647C704.7 236.661 710.439 246.864 720.961 260.893C731.482 274.922 756.989 277.153 775.482 273.327C793.975 269.501 808.322 251.328 809.598 243.038C811.829 227.734 806.409 205.096 807.047 192.98C807.685 181.502 807.047 169.068 804.815 161.734C802.264 152.488 798.12 145.155 798.12 145.155" stroke="#1E1F24" stroke-width="3.18837" stroke-miterlimit="10" stroke-linecap="round" stroke-linejoin="round"/>
<path d="M762.728 844.684C762.728 844.684 768.467 850.742 770.062 857.118" stroke="#1E1F24" stroke-width="3.18837" stroke-miterlimit="10" stroke-linecap="round" stroke-linejoin="round"/>
<path d="M774.526 837.988C774.526 837.988 778.671 840.538 779.308 847.234" stroke="#1E1F24" stroke-width="3.18837" stroke-miterlimit="10" stroke-linecap="round" stroke-linejoin="round"/>
<path d="M775.482 185.328C775.482 190.748 778.989 201.589 782.177 207.009C785.366 212.429 783.772 216.255 778.989 217.85C774.206 219.125 765.917 219.763 763.685 217.85" stroke="#1E1F24" stroke-width="3.18837" stroke-miterlimit="10" stroke-linecap="round" stroke-linejoin="round"/>
<path d="M806.409 175.444C785.685 174.169 780.264 179.27 780.264 179.27" stroke="#1E1F24" stroke-width="3.18837" stroke-miterlimit="10" stroke-linecap="round" stroke-linejoin="round"/>
<path d="M785.685 177.676C786.004 181.821 786.96 188.516 791.743 188.197C796.525 188.197 796.525 179.589 795.887 175.763" stroke="#1E1F24" stroke-width="3.18837" stroke-miterlimit="10" stroke-linecap="round" stroke-linejoin="round"/>
<path d="M716.497 185.647C727.975 177.995 748.062 174.807 752.525 182.778" stroke="#1E1F24" stroke-width="3.18837" stroke-miterlimit="10" stroke-linecap="round" stroke-linejoin="round"/>
<path d="M727.975 180.864C727.975 184.69 727.656 193.299 733.714 193.299C739.772 193.299 738.816 182.458 738.816 178.632" stroke="#1E1F24" stroke-width="3.18837" stroke-miterlimit="10" stroke-linecap="round" stroke-linejoin="round"/>
<path d="M755.395 236.023C768.468 230.922 789.83 224.545 795.888 232.516" stroke="#1E1F24" stroke-width="3.18837" stroke-miterlimit="10" stroke-linecap="round" stroke-linejoin="round"/>
<path d="M774.844 241.762C777.714 241.762 782.178 240.168 783.453 238.574" stroke="#1E1F24" stroke-width="3.18837" stroke-miterlimit="10" stroke-linecap="round" stroke-linejoin="round"/>
<path d="M793.337 249.733C793.337 249.733 794.294 249.733 794.931 250.052" stroke="#1E1F24" stroke-width="3.18837" stroke-miterlimit="10" stroke-linecap="round" stroke-linejoin="round"/>
<path d="M778.67 253.559C778.67 253.878 778.033 255.472 778.67 256.429" stroke="#1E1F24" stroke-width="3.18837" stroke-miterlimit="10" stroke-linecap="round" stroke-linejoin="round"/>
<path d="M764.323 259.617C764.323 259.617 763.685 260.574 764.004 261.211" stroke="#1E1F24" stroke-width="3.18837" stroke-miterlimit="10" stroke-linecap="round" stroke-linejoin="round"/>
<path d="M751.569 247.183C751.569 247.183 750.613 248.458 750.932 249.415" stroke="#1E1F24" stroke-width="3.18837" stroke-miterlimit="10" stroke-linecap="round" stroke-linejoin="round"/>
<path d="M739.134 258.979C739.134 258.979 739.453 257.385 738.816 256.429" stroke="#1E1F24" stroke-width="3.18837" stroke-miterlimit="10" stroke-linecap="round" stroke-linejoin="round"/>
<path d="M727.975 239.849C727.975 239.849 728.294 241.443 728.932 241.762" stroke="#1E1F24" stroke-width="3.18837" stroke-miterlimit="10" stroke-linecap="round" stroke-linejoin="round"/>
<path d="M717.134 229.646C717.134 229.646 716.497 231.56 715.859 231.878" stroke="#1E1F24" stroke-width="3.18837" stroke-miterlimit="10" stroke-linecap="round" stroke-linejoin="round"/>
<path d="M807.365 238.574C807.365 238.574 811.191 238.893 812.467 240.168" stroke="#1E1F24" stroke-width="3.18837" stroke-miterlimit="10" stroke-linecap="round" stroke-linejoin="round"/>
<path d="M809.916 221.357L811.829 222.632" stroke="#1E1F24" stroke-width="3.18837" stroke-miterlimit="10" stroke-linecap="round" stroke-linejoin="round"/>
<path d="M681.425 193.937C681.425 193.937 682.062 227.414 705.656 257.066" stroke="#1E1F24" stroke-width="3.18837" stroke-miterlimit="10" stroke-linecap="round" stroke-linejoin="round"/>
<path d="M676.961 219.443C676.961 219.443 677.599 227.095 681.106 233.153" stroke="#1E1F24" stroke-width="3.18837" stroke-miterlimit="10" stroke-linecap="round" stroke-linejoin="round"/>
<path d="M657.831 294.051C658.788 305.848 656.5 329 656.5 329" stroke="#1E1F24" stroke-width="3.18837" stroke-miterlimit="10" stroke-linecap="round" stroke-linejoin="round"/>
<path d="M665.483 346.022C665.483 346.022 674.092 331.355 681.744 320.834C689.396 309.993 697.048 299.79 697.048 299.79C692.903 300.109 689.077 299.472 685.251 298.515C685.251 298.515 698.323 293.414 708.207 284.167C718.091 274.921 722.236 270.776 727.656 267.907" stroke="#1E1F24" stroke-width="3.18837" stroke-miterlimit="10" stroke-linecap="round" stroke-linejoin="round"/>
<path d="M649 319C653 324.5 657 323.5 657.5 316.5" stroke="#1E1F24" stroke-width="3.18837" stroke-miterlimit="10" stroke-linecap="round" stroke-linejoin="round"/>
<path d="M591.194 15.7065C595.658 17.3007 602.672 23.9963 602.672 23.9963" stroke="#1E1F24" stroke-width="3.18837" stroke-miterlimit="10" stroke-linecap="round" stroke-linejoin="round"/>
<path d="M693.541 8.69238C693.541 8.69238 701.83 9.96773 710.439 15.0691" stroke="#1E1F24" stroke-width="3.18837" stroke-miterlimit="10" stroke-linecap="round" stroke-linejoin="round"/>
<path d="M399.892 176.4C402.761 187.56 404.037 219.125 401.167 232.516" stroke="#1E1F24" stroke-width="3.18837" stroke-miterlimit="10" stroke-linecap="round" stroke-linejoin="round"/>
<path d="M84.2427 761.467C94.1266 773.583 117.083 793.669 133.025 802.597" stroke="#1E1F24" stroke-width="3.18837" stroke-miterlimit="10" stroke-linecap="round" stroke-linejoin="round"/>
<path d="M234.415 818.857C245.256 822.046 270.763 830.336 313.806 819.176" stroke="#1E1F24" stroke-width="3.18837" stroke-miterlimit="10" stroke-linecap="round" stroke-linejoin="round"/>
<path d="M699.917 881.031C712.671 893.465 753.482 933.958 796.206 984.972C838.93 1035.99 858.698 1054.16 865.075 1066.59C871.452 1079.03 877.191 1115.7 876.553 1134.19C875.916 1152.68 888.669 1194.13 900.785 1232.71C912.901 1271.29 927.886 1313.06 932.35 1325.81C936.814 1338.56 949.886 1362.48 957.857 1371.72" stroke="#1E1F24" stroke-width="3.18837" stroke-miterlimit="10" stroke-linecap="round" stroke-linejoin="round"/>
<path d="M190.734 1130.36C186.589 1142.48 182.445 1191.9 182.445 1233.67C182.445 1275.43 201.575 1309.55 201.575 1309.55" stroke="#1E1F24" stroke-width="3.18837" stroke-miterlimit="10" stroke-linecap="round" stroke-linejoin="round"/>
<path d="M239.5 1136C239.5 1136 254.183 1139.29 273.951 1132.91C293.719 1126.54 367.051 1099.75 410.732 1091.78C454.413 1083.81 484.702 1087 497.137 1089.87C509.572 1092.74 511.485 1092.42 513.079 1088.91C514.673 1085.09 542.412 1010.8 564.731 976.045" stroke="#1E1F24" stroke-width="3.18837" stroke-miterlimit="10" stroke-linecap="round" stroke-linejoin="round"/>
<path d="M261.5 1186.5C261.5 1186.5 291.487 1175.32 320.501 1169.58C349.516 1163.84 445.167 1162.25 477.051 1164.8C508.934 1167.35 542.412 1170.22 557.079 1162.56C571.745 1155.23 587.049 1134.83 599.803 1122.71C612.556 1110.59 651.773 1069.14 674.092 1037.58" stroke="#1E1F24" stroke-width="3.18837" stroke-miterlimit="10" stroke-linecap="round" stroke-linejoin="round"/>
<path d="M1063.39 1353.87C1068.81 1344.62 1073.91 1333.46 1067.22 1329.64C1060.52 1325.81 1048.73 1316.88 1030.55 1329C1012.38 1341.11 996.436 1359.92 980.813 1365.35C965.19 1370.77 957.219 1369.17 955.306 1374.59C953.393 1380.01 951.48 1383.84 959.451 1385.11C967.422 1386.39 972.524 1397.87 958.814 1405.84C945.104 1413.81 932.669 1419.23 930.437 1419.87C928.205 1420.5 924.379 1424.33 927.249 1431.34C930.118 1438.36 935.22 1444.1 939.365 1453.98C943.509 1463.87 950.524 1473.11 965.509 1463.87C980.495 1454.62 995.799 1439.95 1014.29 1419.87C1032.78 1399.78 1053.19 1371.08 1063.39 1353.87Z" stroke="#1E1F24" stroke-width="3.18837" stroke-miterlimit="10" stroke-linecap="round" stroke-linejoin="round"/>
<path d="M1070.09 1336.01C1066.26 1329 1054.46 1338.56 1030.87 1373.63C1007.28 1408.71 992.929 1420.5 979.219 1432.3C960.726 1448.24 945.741 1462.91 949.567 1466.74" stroke="#1E1F24" stroke-width="3.18837" stroke-miterlimit="10" stroke-linecap="round" stroke-linejoin="round"/>
<path d="M1052.23 1334.42C1028.64 1355.46 1008.87 1391.49 991.335 1407.43C973.799 1423.37 954.669 1440.59 948.611 1450.47" stroke="#1E1F24" stroke-width="3.18837" stroke-miterlimit="10" stroke-linecap="round" stroke-linejoin="round"/>
<path d="M973.48 1367.9L982.408 1377.14" stroke="#1E1F24" stroke-width="3.18837" stroke-miterlimit="10" stroke-linecap="round" stroke-linejoin="round"/>
<path d="M986.234 1371.4L988.465 1362.16" stroke="#1E1F24" stroke-width="3.18837" stroke-miterlimit="10" stroke-linecap="round" stroke-linejoin="round"/>
<path d="M988.146 1365.34L998.03 1365.03" stroke="#1E1F24" stroke-width="3.18837" stroke-miterlimit="10" stroke-linecap="round" stroke-linejoin="round"/>
<path d="M1003.45 1357.05V1350.68" stroke="#1E1F24" stroke-width="3.18837" stroke-miterlimit="10" stroke-linecap="round" stroke-linejoin="round"/>
<path d="M1009.83 1345.9L1016.84 1346.21" stroke="#1E1F24" stroke-width="3.18837" stroke-miterlimit="10" stroke-linecap="round" stroke-linejoin="round"/>
<path d="M932.35 1328.36C922.785 1329.32 898.553 1342.07 890.582 1355.14" stroke="#1E1F24" stroke-width="3.18837" stroke-miterlimit="10" stroke-linecap="round" stroke-linejoin="round"/>
<path d="M301.371 1124.3C301.371 1131.64 302.646 1154.27 317.313 1169.9" stroke="#1E1F24" stroke-width="3.18837" stroke-miterlimit="10" stroke-linecap="round" stroke-linejoin="round"/>
<path d="M788.235 649.555C795.887 642.541 811.829 634.57 818.525 608.106C825.539 581.643 820.757 563.788 817.887 548.165" stroke="#1E1F24" stroke-width="3.18837" stroke-miterlimit="10" stroke-linecap="round" stroke-linejoin="round"/>
<path d="M759.221 303.935C760.815 313.181 765.279 323.065 765.279 329.442C764.641 340.601 747.743 342.196 749.018 329.123C749.656 321.471 757.308 309.674 759.221 303.935Z" stroke="#1E1F24" stroke-width="3.18837" stroke-miterlimit="10" stroke-linecap="round" stroke-linejoin="round"/>
<path d="M761.5 409.5C761.5 409.5 760.816 385.877 766.236 366.428C771.656 346.979 778.033 340.921 778.033 340.921L777.714 350.805C777.714 350.805 804.496 354.312 826.177 354.631C847.858 354.95 856.786 353.356 856.786 353.356L861.887 346.66C861.887 346.66 861.568 355.587 859.018 360.37C856.467 365.471 853.597 372.805 852.96 381.413C852.322 390.022 836.699 420.63 823.308 434.34C809.917 447.731 797.801 441.036 792.062 437.21C786.323 433.384 769.424 420.311 769.424 420.311C769.424 420.311 771.975 429.558 777.714 435.297C783.453 441.036 784.728 445.818 778.989 448.05C773.25 450.282 767.83 451.876 758.584 449.326C749.338 446.775 745.511 442.311 744.555 441.036C743.598 439.76 747.106 432.746 752.526 422.224C757.946 411.384 758.265 406.601 764.961 413.297" stroke="#1E1F24" stroke-width="3.18837" stroke-miterlimit="10" stroke-linecap="round" stroke-linejoin="round"/>
<path d="M781.858 415.529C781.858 415.529 790.786 401.5 800.032 391.616" stroke="#1E1F24" stroke-width="3.18837" stroke-miterlimit="10" stroke-linecap="round" stroke-linejoin="round"/>
<path d="M783.772 412.659C796.844 410.109 810.873 408.833 825.54 408.833C816.612 403.732 807.685 399.906 794.294 398.949" stroke="#1E1F24" stroke-width="3.18837" stroke-miterlimit="10" stroke-linecap="round" stroke-linejoin="round"/>
<path d="M822.351 393.529C826.177 394.167 829.684 395.442 834.148 394.804C838.612 394.167 840.206 391.616 838.293 386.515C836.38 381.413 835.423 375.036 835.423 368.66C835.423 361.964 841.8 358.457 845.626 357.182C849.452 355.906 855.829 354.631 855.829 354.631" stroke="#1E1F24" stroke-width="3.18837" stroke-miterlimit="10" stroke-linecap="round" stroke-linejoin="round"/>
<path d="M838.612 362.283C838.612 362.283 850.728 362.92 858.061 361.007" stroke="#1E1F24" stroke-width="3.18837" stroke-miterlimit="10" stroke-linecap="round" stroke-linejoin="round"/>
<path d="M843.395 362.92C843.395 362.92 842.119 371.21 846.902 371.21C851.684 370.891 851.365 362.602 851.365 362.602" stroke="#1E1F24" stroke-width="3.18837" stroke-miterlimit="10" stroke-linecap="round" stroke-linejoin="round"/>
<path d="M785.366 361.645C789.192 361.326 800.67 361.964 808.96 363.558C817.25 364.833 820.438 366.109 821.395 366.109C822.351 366.109 823.308 364.196 822.989 361.326" stroke="#1E1F24" stroke-width="3.18837" stroke-miterlimit="10" stroke-linecap="round" stroke-linejoin="round"/>
<path d="M799.076 362.602C799.076 362.602 798.12 372.486 804.178 372.486C811.192 372.486 809.598 363.558 809.598 363.558" stroke="#1E1F24" stroke-width="3.18837" stroke-miterlimit="10" stroke-linecap="round" stroke-linejoin="round"/>
<path d="M800.989 418.398C807.684 416.485 817.568 417.123 820.119 417.76" stroke="#1E1F24" stroke-width="3.18837" stroke-miterlimit="10" stroke-linecap="round" stroke-linejoin="round"/>
<path d="M777.076 451.876C782.815 451.557 793.656 454.746 793.975 475.151C794.293 495.557 786.848 512.449 772.5 515" stroke="#1E1F24" stroke-width="3.18837" stroke-miterlimit="10" stroke-linecap="round" stroke-linejoin="round"/>
<path d="M848.814 455.25C847.539 447.598 847.539 432.108 848.814 423.5C850.09 414.891 852.322 416.804 853.916 421.906C855.191 427.007 861.568 434.34 861.568 434.34C861.568 434.34 857.423 413.297 860.93 393.21C864.437 373.123 878.785 351.124 874.003 313.501C869.22 275.878 839.249 251.009 807.047 250.371" stroke="#1E1F24" stroke-width="3.18837" stroke-miterlimit="10" stroke-linecap="round" stroke-linejoin="round"/>
<path d="M793.337 352.399C801.946 354.95 811.192 363.239 811.192 363.239" stroke="#1E1F24" stroke-width="3.18837" stroke-miterlimit="10" stroke-linecap="round" stroke-linejoin="round"/>
<path d="M822.67 362.92C822.351 363.877 818.206 361.645 814.699 359.413C811.192 356.862 805.453 353.993 809.279 354.311" stroke="#1E1F24" stroke-width="3.18837" stroke-miterlimit="10" stroke-linecap="round" stroke-linejoin="round"/>
<path fill-rule="evenodd" clip-rule="evenodd" d="M699.062 879.315C699.657 878.666 700.666 878.623 701.314 879.218L700.236 880.393L699.158 881.567C698.509 880.972 698.466 879.963 699.062 879.315ZM700.236 880.393C699.158 881.567 699.158 881.567 699.158 881.567L699.542 881.92C699.794 882.151 700.164 882.492 700.64 882.93C701.59 883.806 702.96 885.069 704.635 886.618C707.986 889.717 712.56 893.962 717.452 898.545C727.254 907.727 738.44 918.124 743.5 923.5C744.103 924.141 746.5 926 746.5 926C746.5 926 746.264 922.049 745.661 921.408C740.518 915.943 729.412 905.379 719.632 896.218C714.733 891.629 710.154 887.379 706.8 884.277C705.123 882.726 703.752 881.462 702.8 880.585C702.324 880.146 701.952 879.805 701.7 879.573L701.314 879.218C701.314 879.218 701.314 879.218 700.236 880.393Z" fill="white"/>
</svg>
